<?xml version="1.0" standalone="no"?>
<!DOCTYPE svg PUBLIC "-//W3C//DTD SVG 1.1//EN" "http://www.w3.org/Graphics/SVG/1.1/DTD/svg11.dtd" >
<svg xmlns="http://www.w3.org/2000/svg" xmlns:xlink="http://www.w3.org/1999/xlink" version="1.1">
<metadata>
Created by FontForge 20201107 at Thu Mar 21 11:59:55 2024
 By 
Copyright (c) 1991, 2002 Adobe Systems Incorporated.  All Rights Reserved.
</metadata>
<defs>
<font id="ImpactLTStd" horiz-adv-x="948" >
  <font-face 
    font-family="Impact LT Std"
    font-weight="400"
    font-stretch="normal"
    units-per-em="2048"
    panose-1="2 11 8 6 3 9 2 5 2 4"
    ascent="1462"
    descent="-586"
    x-height="1200"
    cap-height="1462"
    bbox="-193 -416 2060 1917"
    underline-thickness="102"
    underline-position="-204"
    unicode-range="U+0020-FB02"
  />
<missing-glyph horiz-adv-x="1024" 
d="M0 0v1434h1024v-1434h-1024zM512 809l348 522h-696zM573 717l349 -522v1044zM164 102h696l-348 523zM102 1239v-1044l349 522z" />
    <glyph glyph-name="fi" unicode="fi" horiz-adv-x="1024" 
d="M614 0v1200h365v-1200h-365zM614 1278v184h365v-184h-365zM10 1004v196h76q6 157 68.5 209.5t234.5 52.5h162v-184h-55q-51 0 -80 -16t-35 -62h178v-196h-108v-1004h-365v1004h-76z" />
    <glyph glyph-name="fl" unicode="fl" horiz-adv-x="1024" 
d="M614 0v1462h365v-1462h-365zM10 1004v196h76q6 157 68.5 209.5t234.5 52.5h162v-184h-55q-51 0 -80 -16t-35 -62h178v-196h-108v-1004h-365v1004h-76z" />
    <glyph glyph-name=".notdef" horiz-adv-x="1024" 
d="M0 0v1434h1024v-1434h-1024zM512 809l348 522h-696zM573 717l349 -522v1044zM164 102h696l-348 523zM102 1239v-1044l349 522z" />
    <glyph glyph-name=".null" horiz-adv-x="0" 
 />
    <glyph glyph-name="nonmarkingreturn" horiz-adv-x="682" 
 />
    <glyph glyph-name="space" unicode=" " horiz-adv-x="491" 
 />
    <glyph glyph-name="exclam" unicode="!" horiz-adv-x="532" 
d="M59 1462h414l-55 -1075h-295zM104 0v283h338v-283h-338z" />
    <glyph glyph-name="quotedbl" unicode="&#x22;" horiz-adv-x="681" 
d="M406 973v489h245v-489h-245zM31 973v489h245v-489h-245z" />
    <glyph glyph-name="numbersign" unicode="#" horiz-adv-x="983" 
d="M913 598v-197h-163l-56 -401h-205l60 401h-176l-54 -401h-204l55 401h-162v197h191l32 238h-161v196h188l55 402h205l-55 -402h172l53 402h205l-55 -402h137v-196h-164l-33 -238h135zM610 836h-176l-31 -238h170z" />
    <glyph glyph-name="dollar" unicode="$" 
d="M39 397v99h352v-215q0 -30 18 -50t54 -20q32 0 50.5 20.5t18.5 49.5v98q0 44 -17 80t-45.5 62.5t-65.5 50.5t-77.5 47.5t-81.5 49t-78 59.5t-65.5 74.5t-45.5 98.5t-17 127q0 321 352 369v135h184v-135q175 -32 243.5 -114.5t68.5 -264.5v-33h-352v145q0 32 -20 52
t-54 20q-32 0 -51 -18.5t-19 -48.5v-60q0 -48 28.5 -86t74.5 -66t101 -55.5t110 -62.5t101 -78t74.5 -111.5t28.5 -154.5v-90q0 -85 -15 -147.5t-51.5 -113.5t-103 -81t-164.5 -39v-166h-184v166q-90 7 -151.5 28.5t-108.5 66.5t-69 122t-23 190z" />
    <glyph glyph-name="percent" unicode="%" horiz-adv-x="1478" 
d="M266 1284v-549q0 -61 45 -61t45 61v549q0 62 -45 62t-45 -62zM377 -31l569 1524h158l-572 -1524h-155zM1122 727v-549q0 -61 45 -61t45 61v549q0 61 -45 61t-45 -61zM45 772v488q0 65 22 112t61 72.5t84 37t99 11.5t99 -11.5t84.5 -37t61.5 -72.5t22 -112v-488
q0 -65 -22 -112t-61.5 -72.5t-84.5 -37t-99 -11.5t-99 11.5t-84 37t-61 72.5t-22 112zM901 203v487q0 65 22 112t61 73t84 37.5t99 11.5t99.5 -11.5t84.5 -37.5t61 -73t22 -112v-487q0 -65 -22 -112t-61 -73t-84.5 -37.5t-99.5 -11.5t-99 11.5t-84 37.5t-61 73t-22 112z" />
    <glyph glyph-name="ampersand" unicode="&#x26;" horiz-adv-x="1062" 
d="M393 969q0 -41 24 -88t50 -72q63 57 63 156q0 84 -67 84q-33 0 -51.5 -26t-18.5 -54zM18 322q0 67 24.5 129.5t76 108.5t119.5 56v5q-67 24 -109.5 103.5t-42.5 170.5q0 170 105.5 260t265.5 90q155 0 261.5 -85.5t106.5 -239.5q0 -45 -5.5 -78.5t-24.5 -69t-30.5 -52
t-47.5 -65.5l123 -231l196 123v-256l-108 -58l135 -233h-346l-49 76q-64 -51 -153 -79t-165 -28q-142 0 -237 95.5t-95 257.5zM557 242l-113 190q-73 -62 -73 -131q0 -41 23.5 -69.5t66.5 -28.5t96 39z" />
    <glyph glyph-name="quotesingle" unicode="'" horiz-adv-x="491" 
d="M123 973v489h246v-489h-246z" />
    <glyph glyph-name="parenleft" unicode="(" horiz-adv-x="569" 
d="M313 1462h254q-76 -190 -110.5 -361.5t-34.5 -369.5t34.5 -369.5t110.5 -361.5h-254q-100 173 -164.5 365.5t-64.5 365.5t64.5 365.5t164.5 365.5z" />
    <glyph glyph-name="parenright" unicode=")" horiz-adv-x="569" 
d="M2 1462h254q100 -173 164.5 -365.5t64.5 -365.5t-64.5 -365.5t-164.5 -365.5h-254q76 190 110.5 361.5t34.5 369.5t-34.5 369.5t-110.5 361.5z" />
    <glyph glyph-name="asterisk" unicode="*" horiz-adv-x="872" 
d="M240 997l-238 76l78 221l235 -75v243h246v-254l236 86l73 -221l-247 -84l157 -207l-190 -135l-158 211l-162 -211l-190 150z" />
    <glyph glyph-name="plus" unicode="+" horiz-adv-x="1228" 
d="M492 0v395h-396v246h396v395h245v-395h396v-246h-396v-395h-245z" />
    <glyph glyph-name="comma" unicode="," horiz-adv-x="491" 
d="M104 0v295h283v-219q0 -104 -78 -187.5t-188 -83.5l-10 111q32 0 51.5 25t19.5 59h-78z" />
    <glyph glyph-name="hyphen" unicode="-" horiz-adv-x="645" 
d="M37 516v283h571v-283h-571z" />
    <glyph glyph-name="period" unicode="." horiz-adv-x="491" 
d="M104 0v295h283v-295h-283z" />
    <glyph glyph-name="slash" unicode="/" horiz-adv-x="530" 
d="M-33 -31l367 1524h229l-358 -1524h-238z" />
    <glyph glyph-name="zero" unicode="0" horiz-adv-x="983" 
d="M426 1192v-889q0 -42 16 -71t50 -29q23 0 37.5 10.5t20 31.5t6.5 34t1 36v883q0 28 -18 51t-47 23q-59 0 -66 -80zM61 346v770q0 183 119.5 280t311.5 97q93 0 170.5 -23.5t136 -69.5t91 -118.5t32.5 -165.5v-770q0 -93 -32.5 -165.5t-91 -118.5t-136 -69.5t-170.5 -23.5
q-192 0 -311.5 97t-119.5 280z" />
    <glyph glyph-name="one" unicode="1" horiz-adv-x="757" 
d="M70 1044v173q142 28 241 84t174 161h203v-1462h-352v877q0 49 -3.5 75.5t-16.5 50t-39.5 32.5t-71.5 9h-135z" />
    <glyph glyph-name="two" unicode="2" horiz-adv-x="983" 
d="M63 0v211l412 692q28 48 43.5 78t32 79.5t16.5 92.5q0 39 -20.5 66.5t-59.5 27.5q-50 0 -68 -33t-18 -90v-166h-338v109q0 117 33 202.5t93 133t133 69t163 21.5q199 0 317 -95t118 -274q0 -146 -95 -305l-340 -573h414v-246h-836z" />
    <glyph glyph-name="three" unicode="3" horiz-adv-x="983" 
d="M897 1145v-86q0 -55 -18.5 -106t-60 -88t-97.5 -38v-4q40 -6 71 -19.5t52 -31t36 -45t23 -52.5t12.5 -62.5t5.5 -67t1 -72.5v-102q0 -218 -107.5 -310t-331.5 -92q-67 0 -122 8.5t-96 22t-73 37t-53 46.5t-36 58.5t-23 64.5t-12.5 73t-5.5 75.5t-1 79.5v137h338v-256
q0 -51 19.5 -88t56.5 -37q20 0 34 8t21 18.5t10.5 28t4 27.5t0.5 27v227q0 84 -31 117t-115 33h-84v209h70q43 0 66.5 3t48 15.5t35 40.5t10.5 74v196q0 30 -17.5 50t-52.5 20q-76 0 -76 -104v-181h-338v76q0 123 24 204.5t77 128.5t126.5 66t182.5 19q62 0 117 -8.5
t113.5 -32t100 -61t68.5 -100.5t27 -146z" />
    <glyph glyph-name="four" unicode="4" horiz-adv-x="983" 
d="M303 512h182v741h-4zM938 512v-246h-115v-266h-352v266h-426v230l322 966h456v-950h115z" />
    <glyph glyph-name="five" unicode="5" horiz-adv-x="983" 
d="M84 1462h797v-233h-461l-19 -297h5q14 65 83 104t148 39q285 0 285 -370v-297q0 -218 -103 -328.5t-342 -110.5q-219 0 -317.5 96.5t-98.5 274.5v201h353v-283q0 -80 78 -80q77 0 77 107v417q0 103 -73 103q-30 0 -50 -15.5t-20 -39.5v-15h-365z" />
    <glyph glyph-name="six" unicode="6" horiz-adv-x="983" 
d="M569 270v340q0 92 -77 92q-41 0 -59.5 -26t-18.5 -66v-340q0 -40 18.5 -66t59.5 -26q77 0 77 92zM922 588v-178q0 -208 -108.5 -324.5t-311.5 -116.5q-441 0 -441 463v588q0 111 22 194.5t59.5 136t94 85t119.5 45t142 12.5q192 0 299.5 -93t107.5 -270v-49h-352v111
q0 47 -19 69.5t-47 22.5q-40 0 -56.5 -23.5t-16.5 -72.5v-342h4q76 127 205 127q85 0 145.5 -32t93 -88.5t46.5 -121t14 -143.5z" />
    <glyph glyph-name="seven" unicode="7" horiz-adv-x="757" 
d="M33 1204v258h692v-329l-209 -1133h-397l254 1204h-340z" />
    <glyph glyph-name="eight" unicode="8" horiz-adv-x="983" 
d="M61 362v144q0 55 7.5 103.5t26.5 97.5t58.5 79.5t96.5 34.5v4q-50 10 -84.5 36t-52.5 66.5t-25.5 85.5t-7.5 103q0 192 103.5 284.5t310.5 92.5q209 0 312 -92.5t103 -284.5q0 -121 -36.5 -196.5t-131.5 -94.5v-4q54 -4 92 -34.5t56 -79.5t25.5 -97.5t7.5 -103.5v-144
q0 -67 -11 -121.5t-40.5 -106.5t-77 -87.5t-123.5 -56.5t-176 -21q-101 0 -178 21t-125 56.5t-77.5 87.5t-41 106.5t-11.5 121.5zM426 1190v-164q0 -94 66 -94q65 0 65 94v164q0 94 -65 94q-66 0 -66 -94zM426 575v-282q0 -23 1.5 -37.5t7.5 -31.5t20.5 -25.5t36.5 -8.5
t36.5 8.5t20 25.5t7 31t1.5 38v309q0 34 -18 51t-41 17q-72 0 -72 -95z" />
    <glyph glyph-name="nine" unicode="9" horiz-adv-x="983" 
d="M414 1192v-340q0 -40 18.5 -66t59.5 -26q77 0 77 92v340q0 92 -77 92q-41 0 -59.5 -26t-18.5 -66zM61 874v179q0 208 108.5 324t311.5 116q441 0 441 -463v-588q0 -111 -22 -194.5t-59.5 -136t-94 -85t-119.5 -45t-142 -12.5q-192 0 -299.5 93t-107.5 270v49h352v-111
q0 -47 19 -69.5t47 -22.5q40 0 56.5 23.5t16.5 72.5v342h-4q-76 -127 -205 -127q-85 0 -145.5 32t-93 88.5t-46.5 121t-14 143.5z" />
    <glyph glyph-name="colon" unicode=":" horiz-adv-x="491" 
d="M104 438v295h283v-295h-283zM104 0v295h283v-295h-283z" />
    <glyph glyph-name="semicolon" unicode=";" horiz-adv-x="491" 
d="M104 0v295h283v-219q0 -104 -78 -187.5t-188 -83.5l-10 111q32 0 51.5 25t19.5 59h-78zM104 438v295h283v-295h-283z" />
    <glyph glyph-name="less" unicode="&#x3c;" horiz-adv-x="1228" 
d="M96 420v196l1037 437v-234l-717 -301l717 -301v-233z" />
    <glyph glyph-name="equal" unicode="=" horiz-adv-x="1228" 
d="M96 625v245h1037v-245h-1037zM96 166v246h1037v-246h-1037z" />
    <glyph glyph-name="greater" unicode="&#x3e;" horiz-adv-x="1228" 
d="M96 -16v233l717 301l-717 301v234l1037 -437v-196z" />
    <glyph glyph-name="question" unicode="?" horiz-adv-x="983" 
d="M72 995v111q0 59 8 107.5t34.5 103t70.5 91t122.5 61t184.5 24.5q217 0 318 -104.5t101 -331.5v-217q0 -188 -71.5 -284.5t-198.5 -96.5q-84 0 -133 27t-82 77h-4v-155h-338v401h338v-10q0 -68 72 -68q65 0 65 94v377q0 82 -61 82q-25 0 -41 -8.5t-22.5 -25.5t-8.5 -31.5
t-2 -38.5v-185h-352zM84 0v295h338v-295h-338z" />
    <glyph glyph-name="at" unicode="@" horiz-adv-x="1638" 
d="M641 686q0 -73 41 -120.5t111 -47.5q90 0 147 62.5t57 152.5q0 72 -43.5 118t-113.5 46q-83 0 -141 -65t-58 -146zM1059 999l18 99h193l-90 -488q-26 -112 14 -112q74 0 131 80.5t57 234.5q0 239 -146.5 367.5t-387.5 128.5q-252 0 -403.5 -161t-151.5 -419
q0 -267 163 -421t427 -154q229 0 387 120h203q-111 -148 -265.5 -226.5t-341.5 -78.5q-217 0 -398 96.5t-288.5 271.5t-107.5 392q0 160 62 302.5t167 243.5t249 159.5t304 58.5q108 0 212.5 -27.5t194.5 -81.5t158.5 -128t108 -172.5t39.5 -209.5q0 -96 -23 -179.5
t-60.5 -142t-87 -106t-100 -77t-101 -49t-89 -27.5t-66.5 -8q-44 0 -74.5 26.5t-31.5 75.5h-4q-39 -44 -93 -73t-104 -29q-133 0 -235.5 109t-102.5 257q0 121 50 227t145.5 173t216.5 67q166 0 252 -119z" />
    <glyph glyph-name="A" unicode="A" 
d="M406 516h131l-66 688h-4zM10 0l185 1462h542l201 -1462h-377l-18 258h-137l-19 -258h-377z" />
    <glyph glyph-name="B" unicode="B" 
d="M410 1229v-336h41q40 0 64 25t24 65v156q0 40 -24 65t-64 25h-41zM410 672v-426h36q93 0 93 92v242q0 92 -93 92h-36zM45 0v1462h533q158 0 235.5 -60t77.5 -210v-162q0 -119 -60.5 -166.5t-185.5 -52.5l-4 -4q127 -5 200.5 -78t73.5 -203v-204q0 -171 -88.5 -246.5
t-271.5 -75.5h-510z" />
    <glyph glyph-name="C" unicode="C" 
d="M45 422v618q0 74 12 136.5t44 122.5t82 101.5t131.5 67t187.5 25.5q205 0 313.5 -108t108.5 -304v-207h-377v273q0 20 -0.5 30t-4 26t-10 23.5t-20 14t-33.5 6.5q-57 0 -57 -96v-840q0 -96 57 -96q20 0 33.5 7t20 16t10 27.5t4 31t0.5 37.5v297h377v-242
q0 -194 -115 -307t-315 -113q-110 0 -192 25.5t-130 66.5t-77.5 102.5t-39.5 122t-10 136.5z" />
    <glyph glyph-name="D" unicode="D" horiz-adv-x="987" 
d="M45 0v1462h475q84 0 143 -7.5t115.5 -30.5t90 -63.5t53.5 -109t20 -164.5v-806q0 -64 -19 -113.5t-50.5 -80.5t-75.5 -51t-90 -28t-99 -8h-563zM422 1217v-971h55q41 0 65.5 34t22.5 87v729q2 53 -22.5 87t-65.5 34h-55z" />
    <glyph glyph-name="E" unicode="E" horiz-adv-x="720" 
d="M45 0v1462h637v-295h-260v-268h244v-283h-244v-321h280v-295h-657z" />
    <glyph glyph-name="F" unicode="F" horiz-adv-x="681" 
d="M45 0v1462h635v-295h-258v-268h221v-283h-221v-616h-377z" />
    <glyph glyph-name="G" unicode="G" horiz-adv-x="987" 
d="M942 788v-788h-246l-28 102q-48 -65 -124 -99t-161 -34q-75 0 -134 24t-96.5 63.5t-62.5 95t-35 115.5t-10 128v645q0 76 10 136.5t39.5 122t77.5 102.5t130 66.5t192 25.5q238 0 337 -97t99 -323v-149h-377v225q0 49 -12 73.5t-47 24.5q-72 0 -72 -108v-803
q0 -115 72 -115q24 0 39.5 9t22 27t8 34t1.5 43v246h-78v208h455z" />
    <glyph glyph-name="H" unicode="H" horiz-adv-x="987" 
d="M45 0v1462h377v-530h143v530h377v-1462h-377v612h-143v-612h-377z" />
    <glyph glyph-name="I" unicode="I" horiz-adv-x="454" 
d="M39 0v1462h377v-1462h-377z" />
    <glyph glyph-name="J" unicode="J" horiz-adv-x="606" 
d="M39 0v262q32 -4 57 -4q53 0 73.5 29t20.5 88v1087h377v-1204q0 -32 -5 -62t-23.5 -67.5t-48 -64.5t-84.5 -45.5t-127 -18.5h-240z" />
    <glyph glyph-name="K" unicode="K" 
d="M45 0v1462h365v-573h4l170 573h358l-221 -649l252 -813h-402l-157 643h-4v-643h-365z" />
    <glyph glyph-name="L" unicode="L" horiz-adv-x="681" 
d="M45 0v1462h377v-1179h250v-283h-627z" />
    <glyph glyph-name="M" unicode="M" horiz-adv-x="1290" 
d="M45 0v1462h502l98 -854h4l88 854h508v-1462h-319v1085h-4l-158 -1085h-238l-157 1085h-4v-1085h-320z" />
    <glyph glyph-name="N" unicode="N" 
d="M45 0v1462h320l215 -727h4v727h319v-1462h-319l-213 817h-6v-817h-320z" />
    <glyph glyph-name="O" unicode="O" horiz-adv-x="987" 
d="M45 422v618q0 76 10 136.5t39.5 122t77.5 102.5t130 66.5t192 25.5q92 0 164.5 -17t120.5 -49.5t81 -73t50.5 -94t24.5 -105.5t7 -114v-618q0 -62 -7 -114t-24.5 -105.5t-50.5 -94t-81 -73t-120.5 -49.5t-164.5 -17q-110 0 -192 25.5t-130 66.5t-77.5 102.5t-39.5 122
t-10 136.5zM422 1151v-840q0 -96 72 -96q71 0 71 96v840q0 96 -71 96q-72 0 -72 -96z" />
    <glyph glyph-name="P" unicode="P" horiz-adv-x="909" 
d="M45 0v1462h494q166 0 256 -83.5t90 -250.5v-180q0 -82 -16.5 -144.5t-52 -110t-97 -72.5t-146.5 -25h-163v-596h-365zM410 1217v-375h65q48 0 69 22t21 66v198q0 44 -21 66.5t-69 22.5h-65z" />
    <glyph glyph-name="Q" unicode="Q" horiz-adv-x="987" 
d="M45 422v618q0 76 10 136.5t39.5 122t77.5 102.5t130 66.5t192 25.5q92 0 164.5 -17t120.5 -49.5t81 -73t50.5 -94t24.5 -105.5t7 -114v-579q0 -185 -44 -263t-179 -108v-18q0 -35 16.5 -49.5t59.5 -14.5h168v-184h-347q-206 0 -206 149v21h-29q-77 0 -137 26t-96.5 68
t-60.5 99.5t-33 114.5t-9 120zM422 1151v-840q0 -96 72 -96q71 0 71 96v840q0 96 -71 96q-72 0 -72 -96z" />
    <glyph glyph-name="R" unicode="R" 
d="M45 0v1462h416q61 0 100.5 -1.5t89.5 -8t81 -18.5t64 -33.5t51 -52.5t30 -77.5t12 -105.5v-131q0 -123 -52 -187t-169 -71v-4q124 -7 179.5 -71t55.5 -189v-512h-352v555q0 127 -98 127q-22 0 -43 -6v-676h-365zM410 1229v-326h28q47 0 80 23t33 80v120q0 57 -33 80
t-80 23h-28z" />
    <glyph glyph-name="S" unicode="S" horiz-adv-x="909" 
d="M31 350v182h352v-235q0 -94 63 -94q20 0 33.5 9t20.5 21t11 32.5t4.5 34.5t0.5 36v61q0 54 -27 98t-70 76t-95 63t-103.5 68t-94.5 81.5t-70 112.5t-27 153v81q0 191 106.5 277t304.5 86q102 0 178 -19t120.5 -48.5t72 -73.5t36.5 -86.5t9 -94.5v-137h-338v121
q0 105 -74 105q-63 0 -63 -97v-63q0 -43 27.5 -79.5t71.5 -66t97.5 -60.5t107 -70t97.5 -86.5t71.5 -119.5t27.5 -159v-115q0 -109 -31 -183.5t-92 -115.5t-137.5 -58.5t-180.5 -17.5t-179.5 20.5t-119.5 53t-69 84t-33 102.5t-8 121z" />
    <glyph glyph-name="T" unicode="T" horiz-adv-x="831" 
d="M227 0v1167h-223v295h823v-295h-223v-1167h-377z" />
    <glyph glyph-name="U" unicode="U" horiz-adv-x="987" 
d="M45 401v1061h377v-1116q0 -64 17 -91.5t55 -27.5t54.5 27.5t16.5 91.5v1116h377v-1061q0 -77 -13 -139.5t-45 -118.5t-82 -93.5t-128 -59t-180 -21.5q-127 0 -216.5 32t-139 92.5t-71.5 135.5t-22 172z" />
    <glyph glyph-name="V" unicode="V" 
d="M16 1462h377l86 -1179h4l97 1179h352l-199 -1462h-534z" />
    <glyph glyph-name="W" unicode="W" horiz-adv-x="1517" 
d="M0 1462h365l86 -1011h4l104 1011h395l107 -1011h4l88 1011h365l-172 -1462h-478l-102 848h-4l-113 -848h-479z" />
    <glyph glyph-name="X" unicode="X" 
d="M4 0l164 795l-152 667h377l74 -481h4l92 481h338l-160 -628l203 -834h-364l-109 612h-4l-86 -612h-377z" />
    <glyph glyph-name="Y" unicode="Y" horiz-adv-x="909" 
d="M272 0v532l-272 930h352l109 -579h4l92 579h352l-272 -930v-532h-365z" />
    <glyph glyph-name="Z" unicode="Z" horiz-adv-x="720" 
d="M47 1462h643v-260l-287 -919h306v-283h-697v229l312 951h-277v282z" />
    <glyph glyph-name="bracketleft" unicode="[" horiz-adv-x="606" 
d="M84 254v954q0 58 5 97t19.5 68.5t35.5 46t59.5 26.5t83.5 13t116 3h160v-190q-35 6 -57 6q-45 0 -64.5 -12t-19.5 -39v-991q0 -27 19.5 -39.5t64.5 -12.5q22 0 57 6v-190h-160q-71 0 -116 3t-83.5 13t-59.5 26.5t-35.5 46t-19.5 68.5t-5 97z" />
    <glyph glyph-name="backslash" unicode="\" horiz-adv-x="530" 
d="M326 -31l-359 1524h230l366 -1524h-237z" />
    <glyph glyph-name="bracketright" unicode="]" horiz-adv-x="606" 
d="M184 236v991q0 27 -19.5 39t-64.5 12q-22 0 -57 -6v190h160q71 0 116 -3t83.5 -13t59.5 -26.5t35.5 -46t19.5 -68.5t5 -97v-954q0 -58 -5 -97t-19.5 -68.5t-35.5 -46t-59.5 -26.5t-83.5 -13t-116 -3h-160v190q35 -6 57 -6q45 0 64.5 12.5t19.5 39.5z" />
    <glyph glyph-name="asciicircum" unicode="^" horiz-adv-x="1228" 
d="M387 715h-237l358 747h213l358 -747h-239l-226 514z" />
    <glyph glyph-name="underscore" unicode="_" horiz-adv-x="1024" 
d="M0 -256v102h1024v-102h-1024z" />
    <glyph glyph-name="grave" unicode="`" horiz-adv-x="454" 
d="M246 1300l-381 222h352l176 -222h-147z" />
    <glyph glyph-name="a" unicode="a" horiz-adv-x="909" 
d="M864 877v-877h-352v68q-42 -44 -102.5 -71.5t-126.5 -27.5q-114 0 -176 69.5t-62 186.5v162q0 40 1.5 62t9 49.5t21.5 44t40 36.5t64.5 37.5t94.5 38.5q105 40 150.5 64t59.5 45t14 59v152q0 29 -16.5 50.5t-45.5 21.5q-55 0 -55 -72v-238h-338v127q0 195 96.5 281
t304.5 86q102 0 175 -16.5t130 -55.5t85 -109.5t28 -172.5zM383 389v-125q0 -27 14.5 -47t38.5 -20q31 0 47.5 19t16.5 42v313q-60 -37 -88.5 -79t-28.5 -103z" />
    <glyph glyph-name="b" unicode="b" 
d="M410 891v-582q0 -58 14.5 -82t54.5 -24q25 0 42.5 18t17.5 43v633q0 31 -16.5 53.5t-43.5 22.5q-34 0 -51.5 -23t-17.5 -59zM406 98l-17 -98h-344v1462h365v-366h4q44 59 102.5 97t124.5 38q120 0 191 -90t71 -273v-579q0 -63 -12.5 -117t-40 -101.5t-78.5 -74.5
t-121 -27q-78 0 -129.5 30.5t-115.5 98.5z" />
    <glyph glyph-name="c" unicode="c" horiz-adv-x="909" 
d="M45 367v467q0 90 26 160.5t67.5 114t99 72t115.5 39.5t122 11q188 0 297 -99t109 -288v-101h-353v197q0 21 -3 34t-16.5 24.5t-39.5 11.5t-39.5 -11.5t-16.5 -24.5t-3 -34v-655q0 -50 13 -72.5t52 -22.5q36 0 51 24t15 75v207h352v-60q0 -110 -21.5 -192.5t-58 -134
t-91 -83.5t-114 -44.5t-133.5 -12.5q-64 0 -122 11t-115.5 39.5t-99 72.5t-67.5 114.5t-26 160.5z" />
    <glyph glyph-name="d" unicode="d" 
d="M410 901v-606q0 -80 59 -80q41 0 55.5 20t14.5 60v606q0 21 -1.5 34.5t-7.5 29.5t-19.5 24t-35.5 8q-39 0 -52 -21.5t-13 -74.5zM45 248v694q0 144 62.5 216.5t199.5 72.5q67 0 129 -29.5t99 -83.5h4v344h364v-1462h-383l19 72h-4q-110 -103 -244 -103q-125 0 -187 76.5
t-59 202.5z" />
    <glyph glyph-name="e" unicode="e" horiz-adv-x="909" 
d="M45 367v467q0 90 26 160.5t67.5 114t99 72t115.5 39.5t122 11q56 0 110 -12t108.5 -41.5t95.5 -73.5t66.5 -113.5t25.5 -156.5v-252h-471v-314q0 -39 11.5 -58.5t43.5 -19.5q63 0 63 84v215h353v-122q0 -90 -24 -160.5t-63 -114.5t-93 -72.5t-109.5 -39.5t-116.5 -11
q-64 0 -122 11t-115.5 39.5t-99 72.5t-67.5 114.5t-26 160.5zM410 932v-154h118v148q0 84 -63 84q-32 0 -43.5 -19.5t-11.5 -58.5z" />
    <glyph glyph-name="f" unicode="f" horiz-adv-x="569" 
d="M10 1004v196h76q6 157 68.5 209.5t234.5 52.5h162v-184h-55q-51 0 -80 -16t-35 -62h178v-196h-108v-1004h-365v1004h-76z" />
    <glyph glyph-name="g" unicode="g" 
d="M45 485v422q0 89 26 160t87.5 117.5t152.5 46.5q76 0 131 -29t105 -98h4v96h352v-973q0 -403 -457 -403q-82 0 -146.5 13t-122 44t-89 91.5t-31.5 146.5h353v-39q0 -26 13.5 -49t41.5 -23q38 0 56 16t18 68v166q-94 -94 -228 -94q-89 0 -150.5 46t-88.5 116.5t-27 158.5z
M539 492v399q0 35 -17 58.5t-51 23.5q-39 0 -56.5 -23t-17.5 -59v-399q0 -36 17.5 -59t56.5 -23q34 0 51 23.5t17 58.5z" />
    <glyph glyph-name="h" unicode="h" 
d="M55 0v1462h365v-354h4q23 55 90 89t131 34q118 0 183 -79.5t65 -240.5v-911h-365v899q0 86 -57 86q-23 0 -35 -16t-14 -31.5t-2 -40.5v-897h-365z" />
    <glyph glyph-name="i" unicode="i" horiz-adv-x="454" 
d="M45 0v1200h365v-1200h-365zM45 1278v184h365v-184h-365z" />
    <glyph glyph-name="j" unicode="j" horiz-adv-x="454" 
d="M45 82v1118h365v-1077q0 -92 -19 -151t-62.5 -91.5t-100.5 -44.5t-146 -12q-8 0 -107 6v178q45 1 57.5 15.5t12.5 58.5zM45 1278v184h365v-184h-365z" />
    <glyph glyph-name="k" unicode="k" horiz-adv-x="872" 
d="M45 0v1462h365v-684h4l114 422h320l-146 -479l179 -721h-353l-114 506h-4v-506h-365z" />
    <glyph glyph-name="l" unicode="l" horiz-adv-x="454" 
d="M45 0v1462h365v-1462h-365z" />
    <glyph glyph-name="m" unicode="m" horiz-adv-x="1404" 
d="M55 0v1200h365v-92h4q23 55 94 90q59 33 127 33q78 0 132.5 -40.5t84.5 -96.5q56 64 113 100.5t127 36.5q118 0 183 -79.5t65 -240.5v-911h-365v899q0 86 -57 86q-22 0 -33.5 -16t-13.5 -31.5t-2 -40.5v-897h-353v899q0 86 -55 86q-23 0 -35 -16t-14 -31.5t-2 -40.5v-897
h-365z" />
    <glyph glyph-name="n" unicode="n" 
d="M55 0v1200h365v-92h4q24 49 83.5 86t137.5 37q118 0 183 -79.5t65 -240.5v-911h-365v899q0 86 -57 86q-23 0 -35 -16t-14 -31.5t-2 -40.5v-897h-365z" />
    <glyph glyph-name="o" unicode="o" horiz-adv-x="950" 
d="M45 367v467q0 90 26 160.5t67.5 114t99 72t115.5 39.5t122 11t122 -11t115.5 -39.5t99 -72t67.5 -114t26 -160.5v-467q0 -90 -26 -160.5t-67.5 -114.5t-99 -72.5t-115.5 -39.5t-122 -11t-122 11t-115.5 39.5t-99 72.5t-67.5 114.5t-26 160.5zM410 930v-635
q0 -33 16.5 -56.5t48.5 -23.5t49 23.5t17 56.5v635q0 33 -17 56.5t-49 23.5t-48.5 -23t-16.5 -57z" />
    <glyph glyph-name="p" unicode="p" horiz-adv-x="950" 
d="M45 -176v1376h365v-100q49 58 113.5 94.5t133.5 36.5q61 0 106 -19.5t72 -51.5t43 -82t21.5 -102t5.5 -120v-473q0 -55 -2.5 -96.5t-10.5 -93.5t-26 -88.5t-45 -69t-71.5 -49.5t-102.5 -17q-136 0 -233 133h-4v-278h-365zM410 913v-596q0 -45 16.5 -73.5t48.5 -28.5
q66 0 66 102v596q0 42 -14.5 63t-51.5 21q-65 0 -65 -84z" />
    <glyph glyph-name="q" unicode="q" horiz-adv-x="950" 
d="M410 913v-596q0 -104 65 -104q32 0 49 29.5t17 74.5v596q0 84 -66 84q-37 0 -51 -21t-14 -63zM45 383v473q0 68 5.5 120t21.5 102t43 82t72 51.5t106 19.5q70 0 134.5 -36.5t113.5 -94.5v100h364v-1376h-364v278h-4q-44 -60 -101 -96q-63 -37 -133 -37q-58 0 -102.5 17
t-71.5 49.5t-45 69t-26 88.5t-10.5 93.5t-2.5 96.5z" />
    <glyph glyph-name="r" unicode="r" horiz-adv-x="645" 
d="M55 0v1200h353v-153h4q24 80 90 128.5t135 55.5v-436q-40 4 -62 4q-72 0 -113.5 -43t-41.5 -115v-641h-365z" />
    <glyph glyph-name="s" unicode="s" horiz-adv-x="872" 
d="M29 301v131h338v-164q0 -28 15.5 -46.5t43.5 -18.5q27 0 46.5 17.5t19.5 51.5v62q0 37 -25 66.5t-65 52t-88 45.5t-96.5 53.5t-88.5 69t-65 99t-25 136.5q0 39 3 71.5t13 72.5t27 71t48 62.5t72.5 51.5t103 33t138.5 13q51 0 100 -8t102 -29t92.5 -54t65 -88t25.5 -126
v-113h-337v113q0 71 -56 71q-59 0 -59 -71v-47q0 -21 12.5 -40t42 -39t57 -35.5t80 -43t88.5 -47.5q61 -35 99 -72t57 -82.5t25 -90t6 -112.5q0 -189 -111.5 -268.5t-320.5 -79.5q-91 0 -158.5 16t-119.5 53.5t-78.5 103t-26.5 159.5z" />
    <glyph glyph-name="t" unicode="t" horiz-adv-x="569" 
d="M10 1004v196h76v184h377v-184h96v-196h-96v-758q0 -26 10 -37.5t35 -11.5h51v-197h-201q-73 0 -123 12.5t-79 33t-45 58.5t-20.5 77.5t-4.5 101.5v721h-76z" />
    <glyph glyph-name="u" unicode="u" 
d="M55 289v911h365v-899q0 -86 57 -86q23 0 35 16t14 31.5t2 40.5v897h365v-1200h-365v92h-4q-23 -55 -90 -89t-131 -34q-118 0 -183 79.5t-65 240.5z" />
    <glyph glyph-name="v" unicode="v" horiz-adv-x="833" 
d="M182 0l-178 1200h338l94 -954h4l70 954h319l-170 -1200h-477z" />
    <glyph glyph-name="w" unicode="w" horiz-adv-x="1290" 
d="M4 1200h338l68 -868h4l92 868h313l96 -868h5l55 868h311l-139 -1200h-408l-71 649h-4l-89 -649h-415z" />
    <glyph glyph-name="x" unicode="x" horiz-adv-x="833" 
d="M4 0l170 627l-143 573h327l86 -438h5l75 438h305l-151 -569l151 -631h-305l-75 422h-5l-96 -422h-344z" />
    <glyph glyph-name="y" unicode="y" horiz-adv-x="833" 
d="M51 -176v172h84q42 3 57 19t15 55q0 2 -12 77l-195 1053h352l94 -924h5l63 924h320l-140 -1028q-9 -62 -18.5 -106t-28.5 -93t-45.5 -79t-69.5 -50t-100 -20h-381z" />
    <glyph glyph-name="z" unicode="z" horiz-adv-x="681" 
d="M20 0v250l275 717h-250v233h602v-278l-262 -689h277v-233h-642z" />
    <glyph glyph-name="braceleft" unicode="{" horiz-adv-x="681" 
d="M16 631v196q22 0 48.5 6t56 18.5t48.5 39t19 61.5v228q0 107 83 194.5t190 87.5h205v-184h-88q-65 0 -92 -33.5t-27 -99.5v-215q-1 -91 -64 -141.5t-157 -55.5v-4q109 -11 164.5 -60.5t56.5 -156.5v-195q0 -66 27 -99.5t92 -33.5h88v-184h-205q-107 0 -190 88t-83 195
v204q0 31 -12 56.5t-30.5 41.5t-42 26.5t-45.5 15t-42 4.5z" />
    <glyph glyph-name="bar" unicode="|" horiz-adv-x="454" 
d="M104 -31v1524h246v-1524h-246z" />
    <glyph glyph-name="braceright" unicode="}" horiz-adv-x="681" 
d="M666 827v-196q-20 0 -42 -4.5t-45.5 -15t-42 -26.5t-30.5 -41.5t-12 -56.5v-204q0 -107 -83 -195t-190 -88h-205v184h88q65 0 92 33.5t27 99.5v195q1 107 56.5 156.5t164.5 60.5v4q-94 5 -157 55.5t-64 141.5v215q0 66 -27 99.5t-92 33.5h-88v184h205q107 0 190 -87.5
t83 -194.5v-228q0 -35 19 -61.5t48.5 -39t56 -18.5t48.5 -6z" />
    <glyph glyph-name="asciitilde" unicode="~" horiz-adv-x="1228" 
d="M1014 707l73 -195q-23 -32 -38.5 -52t-41 -46t-49.5 -40.5t-57 -25t-70 -10.5q-38 0 -79 11t-64.5 22t-69.5 35t-71.5 35.5t-70.5 23.5t-89 12q-61 0 -101 -40.5t-71 -106.5l-74 194q91 174 256 174q65 0 152 -35t165 -69.5t120 -34.5q29 0 54.5 11.5t50 38t37.5 44
t38 54.5z" />
    <glyph glyph-name="uni00A0" unicode="&#xa0;" horiz-adv-x="491" 
 />
    <glyph glyph-name="exclamdown" unicode="&#xa1;" horiz-adv-x="532" 
d="M59 -262l56 1075h295l63 -1075h-414zM90 918v282h338v-282h-338z" />
    <glyph glyph-name="cent" unicode="&#xa2;" horiz-adv-x="909" 
d="M29 367v467q0 169 81 260.5t248 136.5v158h185v-158q159 -27 239 -127q80 -95 80 -260v-101h-352v199q0 21 -3 34t-17 24.5t-41 11.5q-24 0 -37 -11.5t-16 -25t-3 -33.5v-657q0 -50 13 -72.5t51 -22.5q40 0 55.5 23.5t15.5 75.5v207h353v-60q0 -98 -17.5 -175t-47 -128
t-73.5 -86t-92.5 -53t-107.5 -25v-131h-185v131q-61 9 -115.5 34t-104.5 69.5t-79.5 120t-29.5 174.5z" />
    <glyph glyph-name="sterling" unicode="&#xa3;" horiz-adv-x="983" 
d="M45 -31v234q47 27 78 103.5t41 147.5t10 134h-129v233h100q-86 164 -86 295q0 50 11 98.5t42 100.5t78 90t126.5 63t181.5 25q118 0 198 -26.5t123.5 -79t61.5 -117.5t18 -154v-123h-338v185q0 47 -21 76.5t-55 29.5q-37 0 -55 -28.5t-18 -69.5q0 -64 37.5 -183.5
t39.5 -181.5h232v-233h-215q-17 -297 -187 -363v-4q47 6 91 6q22 0 68 -6t73 -6q29 0 42 28t13 97v70h338v-109q0 -98 -23.5 -166t-65.5 -102.5t-89.5 -49t-106.5 -14.5q-58 0 -187.5 37t-190.5 37q-137 0 -236 -74z" />
    <glyph glyph-name="currency" unicode="&#xa4;" horiz-adv-x="983" 
d="M244 731q0 -112 70.5 -186t177.5 -74q106 0 175.5 74t69.5 186t-69.5 186t-175.5 74q-107 0 -177.5 -74t-70.5 -186zM0 365l102 102q-79 119 -79 264q0 146 79 264l-102 103l125 125l102 -103q119 80 265 80q141 0 262 -80l102 103l127 -125l-102 -103q77 -115 77 -264
q0 -152 -79 -262l104 -104l-127 -125l-104 104q-114 -82 -260 -82q-149 0 -263 82l-104 -104z" />
    <glyph glyph-name="yen" unicode="&#xa5;" horiz-adv-x="983" 
d="M322 0v289h-283v209h287l-35 139h-252v209h190l-180 616h340l109 -579h4l92 579h340l-180 -616h190v-209h-252l-35 -139h287v-209h-282v-289h-340z" />
    <glyph glyph-name="brokenbar" unicode="&#xa6;" horiz-adv-x="454" 
d="M104 -31v563h246v-563h-246zM104 930v563h246v-563h-246z" />
    <glyph glyph-name="section" unicode="&#xa7;" horiz-adv-x="985" 
d="M891 1141h-338v55q0 76 -57 76q-64 0 -64 -82q0 -29 21 -54t54.5 -42.5t77 -38t89 -40t89 -50t77 -66t54.5 -89.5t21 -120q0 -175 -110 -280q51 -51 66.5 -98t15.5 -128q0 -171 -111 -265.5t-297 -94.5q-196 0 -302.5 93t-106.5 247v37h338v-84q0 -30 15.5 -51t45.5 -21
q29 0 47.5 16.5t18.5 44.5v64q0 29 -25.5 52t-66.5 41t-90.5 37.5t-99.5 48t-91 66.5t-66.5 99.5t-25.5 140.5q0 148 98 260q-74 104 -74 232q0 177 112 261.5t302 84.5q79 0 146 -17.5t121 -53t85 -96.5t31 -142v-43zM356 659l277 -122q16 17 26.5 43t10.5 41q0 45 -52 67
l-270 119q-2 -4 -10.5 -20t-12.5 -23.5t-8 -20.5t-4 -24q0 -20 12 -36t31 -24z" />
    <glyph glyph-name="dieresis" unicode="&#xa8;" horiz-adv-x="454" 
d="M-139 1300v222h307v-222h-307zM287 1300v222h307v-222h-307z" />
    <glyph glyph-name="copyright" unicode="&#xa9;" horiz-adv-x="1638" 
d="M1001 621h205q-21 -153 -123 -237.5t-241 -84.5q-188 0 -305 125t-117 313q0 193 114 317t304 124q142 0 239.5 -82t120.5 -232h-197q-13 65 -59.5 97t-105.5 32q-96 0 -145.5 -66t-49.5 -186q0 -115 52 -186.5t138 -71.5q71 0 117.5 35.5t52.5 102.5zM57 731
q0 155 60.5 296t162.5 243t243 162.5t296 60.5t296 -60.5t243 -162.5t162.5 -243t60.5 -296t-60.5 -296t-162.5 -243t-243 -162.5t-296 -60.5t-296 60.5t-243 162.5t-162.5 243t-60.5 296zM242 731q0 -118 45.5 -224.5t123 -184t184 -123t224.5 -45.5q157 0 290 77
t210.5 210t77.5 290t-77.5 290t-210.5 210.5t-290 77.5t-290 -77.5t-210 -210.5t-77 -290z" />
    <glyph glyph-name="ordfeminine" unicode="&#xaa;" horiz-adv-x="589" 
d="M561 1280v-526h-227v41q-64 -60 -150 -60q-74 0 -114.5 42t-40.5 112v96q0 37 3 55t18 38.5t45 35.5t85 33q98 35 123 52t25 48v80q0 16 -12 29.5t-31 13.5q-35 0 -35 -43v-129h-221v74q0 118 63 169.5t199 51.5q135 0 202.5 -47.5t67.5 -165.5zM250 991v-76q0 -16 9 -27
t24 -11q21 0 33 11t12 25v187q-78 -41 -78 -109z" />
    <glyph glyph-name="guillemotleft" unicode="&#xab;" horiz-adv-x="833" 
d="M8 586l154 327h289l-148 -327l139 -312h-295zM383 586l154 327h288l-147 -327l137 -312h-295z" />
    <glyph glyph-name="logicalnot" unicode="&#xac;" horiz-adv-x="1228" 
d="M887 221v404h-791v245h1037v-649h-246z" />
    <glyph glyph-name="uni00AD" unicode="&#xad;" horiz-adv-x="645" 
d="M37 516v283h571v-283h-571z" />
    <glyph glyph-name="registered" unicode="&#xae;" horiz-adv-x="1638" 
d="M57 731q0 155 60.5 296t162.5 243t243 162.5t296 60.5t296 -60.5t243 -162.5t162.5 -243t60.5 -296t-60.5 -296t-162.5 -243t-243 -162.5t-296 -60.5t-296 60.5t-243 162.5t-162.5 243t-60.5 296zM242 731q0 -118 45.5 -224.5t123 -184t184 -123t224.5 -45.5
q157 0 290 77t210.5 210t77.5 290t-77.5 290t-210.5 210.5t-290 77.5t-290 -77.5t-210 -210.5t-77 -290zM512 319v826h305q174 0 261 -55.5t87 -196.5q0 -207 -221 -217l209 -357h-209l-190 345h-58v-345h-184zM696 811h158q59 0 87 21.5t28 80.5q0 84 -156 84h-117v-186z
" />
    <glyph glyph-name="macron" unicode="&#xaf;" horiz-adv-x="454" 
d="M-61 1346v147h577v-147h-577z" />
    <glyph glyph-name="degree" unicode="&#xb0;" horiz-adv-x="819" 
d="M117 1200q0 122 85.5 207.5t207.5 85.5q121 0 206.5 -85.5t85.5 -207.5t-85.5 -207.5t-206.5 -85.5q-122 0 -207.5 85.5t-85.5 207.5zM244 1200q0 -69 48.5 -117.5t117.5 -48.5t117 48.5t48 117.5t-48 117.5t-117 48.5t-117.5 -48.5t-48.5 -117.5z" />
    <glyph glyph-name="plusminus" unicode="&#xb1;" horiz-adv-x="1228" 
d="M492 795v241h245v-241h396v-246h-396v-242h-245v242h-396v246h396zM96 0v246h1037v-246h-1037z" />
    <glyph glyph-name="twosuperior" unicode="&#xb2;" horiz-adv-x="638" 
d="M45 598v127l268 416q60 91 60 149q0 23 -13 39.5t-36 16.5q-58 0 -58 -74v-98h-221v65q0 254 279 254q130 0 206 -56.5t76 -164.5q0 -88 -63 -182l-219 -332h264v-160h-543z" />
    <glyph glyph-name="threesuperior" unicode="&#xb3;" horiz-adv-x="638" 
d="M45 858v82h221v-154q0 -71 45 -71q21 0 31.5 12t12 22.5t1.5 28.5v131q0 52 -19.5 71t-74.5 19h-53v136h45q28 0 43 2t30.5 9t22 23.5t6.5 44.5v103q0 18 -11 29.5t-32 11.5q-47 0 -47 -62v-98h-221v45q0 144 62 197t204 53q51 0 94.5 -9t86 -30.5t67.5 -65t25 -104.5
v-51q0 -53 -29 -95.5t-84 -43.5v-4q36 -4 61.5 -18t39 -31t20.5 -46t8.5 -52t1.5 -60v-62q0 -131 -70 -186t-215 -55q-55 0 -97.5 8.5t-71 21t-48.5 35t-30.5 43.5t-16.5 53t-7 56t-1 61z" />
    <glyph glyph-name="acute" unicode="&#xb4;" horiz-adv-x="454" 
d="M61 1300l177 222h352l-381 -222h-148z" />
    <glyph glyph-name="mu" unicode="&#xb5;" 
d="M55 -176v1376h365v-899q0 -86 57 -86q23 0 35 16t14 31.5t2 40.5v897h365v-1200h-365v92h-4q-11 -25 -32 -43t-43 -18q-14 0 -29 6v-213h-365z" />
    <glyph glyph-name="paragraph" unicode="&#xb6;" horiz-adv-x="1269" 
d="M518 -145v893q-221 0 -339 92t-118 258q0 107 37.5 180.5t109 112.5t157 55t200.5 16h643v-1607h-245v1423h-199v-1423h-246z" />
    <glyph glyph-name="periodcentered" unicode="&#xb7;" horiz-adv-x="491" 
d="M86 612q0 67 47.5 113.5t112.5 46.5t112.5 -46.5t47.5 -113.5t-47.5 -113t-112.5 -46t-112.5 46t-47.5 113z" />
    <glyph glyph-name="cedilla" unicode="&#xb8;" horiz-adv-x="454" 
d="M145 49h111v-117h23q71 0 109 -41t38 -114q0 -88 -63 -140.5t-164 -52.5q-40 0 -64 8v97q15 -6 47 -6q39 0 61.5 21.5t22.5 45.5q0 66 -86 66q-20 0 -35 -6v239z" />
    <glyph glyph-name="onesuperior" unicode="&#xb9;" horiz-adv-x="491" 
d="M215 598v518q0 56 -15.5 78.5t-70.5 22.5h-84v110q93 18 157 51.5t113 96.5h134v-877h-234z" />
    <glyph glyph-name="ordmasculine" unicode="&#xba;" horiz-adv-x="618" 
d="M29 973v280q0 67 24.5 115.5t67 74.5t89.5 38t101 12q53 0 99.5 -12t88.5 -38t66.5 -74.5t24.5 -115.5v-280q0 -54 -16.5 -96t-43.5 -68.5t-64.5 -43.5t-75 -23.5t-79.5 -6.5t-80.5 6.5t-76 23.5t-64.5 43.5t-44 68.5t-17 96zM262 1309v-379q0 -20 12 -33.5t35 -13.5
t35 13.5t12 33.5v379q0 21 -12 35t-35 14t-35 -14t-12 -35z" />
    <glyph glyph-name="guillemotright" unicode="&#xbb;" horiz-adv-x="833" 
d="M530 586l-147 327h289l153 -327l-139 -312h-295zM156 586l-148 327h289l154 -327l-138 -312h-295z" />
    <glyph glyph-name="onequarter" unicode="&#xbc;" horiz-adv-x="1476" 
d="M1030 307h119v447h-4zM1126 0v160h-299v137l207 580h320v-570h78v-147h-78v-160h-228zM375 -31l569 1524h158l-572 -1524h-155zM215 598v518q0 56 -15.5 78.5t-70.5 22.5h-84v110q93 18 157 51.5t113 96.5h134v-877h-234z" />
    <glyph glyph-name="onehalf" unicode="&#xbd;" horiz-adv-x="1476" 
d="M330 -31l569 1524h158l-572 -1524h-155zM215 598v518q0 56 -15.5 78.5t-70.5 22.5h-84v110q93 18 157 51.5t113 96.5h134v-877h-234zM870 0v127l269 416q59 90 59 149q0 23 -13 39.5t-36 16.5q-34 0 -45.5 -19.5t-11.5 -54.5v-99h-222v66q0 254 279 254q130 0 206.5 -57
t76.5 -164q0 -87 -64 -182l-219 -332h264v-160h-543z" />
    <glyph glyph-name="threequarters" unicode="&#xbe;" horiz-adv-x="1476" 
d="M45 858v82h221v-154q0 -71 45 -71q21 0 31.5 12t12 22.5t1.5 28.5v131q0 52 -19.5 71t-74.5 19h-53v136h45q28 0 43 2t30.5 9t22 23.5t6.5 44.5v103q0 18 -11 29.5t-32 11.5q-47 0 -47 -62v-98h-221v45q0 144 62 197t204 53q51 0 94.5 -9t86 -30.5t67.5 -65t25 -104.5
v-51q0 -53 -29 -95.5t-84 -43.5v-4q36 -4 61.5 -18t39 -31t20.5 -46t8.5 -52t1.5 -60v-62q0 -131 -70 -186t-215 -55q-55 0 -97.5 8.5t-71 21t-48.5 35t-30.5 43.5t-16.5 53t-7 56t-1 61zM416 -31l569 1524h158l-572 -1524h-155zM1030 307h119v447h-4zM1126 0v160h-299v137
l207 580h320v-570h78v-147h-78v-160h-228z" />
    <glyph glyph-name="questiondown" unicode="&#xbf;" horiz-adv-x="983" 
d="M72 143v217q0 188 71.5 284.5t198.5 96.5q84 0 133 -27t82 -77h4v156h338v-402h-338v10q0 68 -72 68q-65 0 -65 -94v-377q0 -82 61 -82q25 0 41 8.5t22.5 25.5t8.5 31.5t2 38.5v185h352v-111q0 -59 -8 -107.5t-34.5 -103t-70.5 -91t-122 -61t-184 -24.5
q-217 0 -318.5 104.5t-101.5 331.5zM561 905v295h338v-295h-338z" />
    <glyph glyph-name="Agrave" unicode="&#xc0;" 
d="M406 516h131l-66 688h-4zM10 0l185 1462h542l201 -1462h-377l-18 258h-137l-19 -258h-377zM494 1554l-381 222h352l176 -222h-147z" />
    <glyph glyph-name="Aacute" unicode="&#xc1;" 
d="M406 516h131l-66 688h-4zM10 0l185 1462h542l201 -1462h-377l-18 258h-137l-19 -258h-377zM309 1554l176 222h353l-381 -222h-148z" />
    <glyph glyph-name="Acircumflex" unicode="&#xc2;" 
d="M406 516h131l-66 688h-4zM10 0l185 1462h542l201 -1462h-377l-18 258h-137l-19 -258h-377zM154 1554l231 222h172l240 -222h-174l-148 68l-145 -68h-176z" />
    <glyph glyph-name="Atilde" unicode="&#xc3;" 
d="M406 516h131l-66 688h-4zM10 0l185 1462h542l201 -1462h-377l-18 258h-137l-19 -258h-377zM248 1561l-70 57q103 158 213 158q42 0 110 -37t109 -37q32 0 50 13.5t40 45.5l72 -45q-38 -69 -96.5 -115.5t-128.5 -46.5q-42 0 -112 34t-99 34q-21 0 -38.5 -10.5t-24.5 -18.5
t-25 -32z" />
    <glyph glyph-name="Adieresis" unicode="&#xc4;" 
d="M406 516h131l-66 688h-4zM10 0l185 1462h542l201 -1462h-377l-18 258h-137l-19 -258h-377zM109 1554v222h307v-222h-307zM535 1554v222h307v-222h-307z" />
    <glyph glyph-name="Aring" unicode="&#xc5;" 
d="M406 516h131l-66 688h-4zM10 0l185 1462h542l201 -1462h-377l-18 258h-137l-19 -258h-377zM272 1716q0 84 58.5 142.5t144.5 58.5q80 0 141.5 -59t61.5 -142q0 -85 -59 -144t-144 -59t-144 61t-59 142zM383 1716q0 -38 27 -65t65 -27t65 28.5t27 63.5q0 38 -27.5 64
t-64.5 26q-35 0 -63.5 -27.5t-28.5 -62.5z" />
    <glyph glyph-name="AE" unicode="&#xc6;" horiz-adv-x="1251" 
d="M469 516h125v701h-4zM0 0l319 1462h898v-295h-271v-268h252v-283h-252v-321h287v-295h-639v258h-170l-47 -258h-377z" />
    <glyph glyph-name="Ccedilla" unicode="&#xc7;" 
d="M45 422v618q0 74 12 136.5t44 122.5t82 101.5t131.5 67t187.5 25.5q205 0 313.5 -108t108.5 -304v-207h-377v273q0 20 -0.5 30t-4 26t-10 23.5t-20 14t-33.5 6.5q-57 0 -57 -96v-840q0 -96 57 -96q20 0 33.5 7t20 16t10 27.5t4 31t0.5 37.5v297h377v-242
q0 -191 -111.5 -303.5t-308.5 -116.5v-37h22q71 0 109.5 -41t38.5 -114q0 -88 -63.5 -140.5t-164.5 -52.5q-39 0 -63 8v97q15 -6 47 -6q39 0 61.5 21.5t22.5 45.5q0 66 -86 66q-20 0 -35 -6v167q-85 10 -148 40t-100.5 71t-60.5 98t-31 112.5t-8 123.5z" />
    <glyph glyph-name="Egrave" unicode="&#xc8;" horiz-adv-x="720" 
d="M45 0v1462h637v-295h-260v-268h244v-283h-244v-321h280v-295h-657zM379 1554l-381 222h352l176 -222h-147z" />
    <glyph glyph-name="Eacute" unicode="&#xc9;" horiz-adv-x="720" 
d="M45 0v1462h637v-295h-260v-268h244v-283h-244v-321h280v-295h-657zM195 1554l176 222h352l-381 -222h-147z" />
    <glyph glyph-name="Ecircumflex" unicode="&#xca;" horiz-adv-x="720" 
d="M45 0v1462h637v-295h-260v-268h244v-283h-244v-321h280v-295h-657zM39 1554l231 222h172l240 -222h-174l-148 68l-145 -68h-176z" />
    <glyph glyph-name="Edieresis" unicode="&#xcb;" horiz-adv-x="720" 
d="M45 0v1462h637v-295h-260v-268h244v-283h-244v-321h280v-295h-657zM-6 1554v222h307v-222h-307zM420 1554v222h307v-222h-307z" />
    <glyph glyph-name="Igrave" unicode="&#xcc;" horiz-adv-x="454" 
d="M39 0v1462h377v-1462h-377zM246 1554l-381 222h352l176 -222h-147z" />
    <glyph glyph-name="Iacute" unicode="&#xcd;" horiz-adv-x="454" 
d="M39 0v1462h377v-1462h-377zM61 1554l177 222h352l-381 -222h-148z" />
    <glyph glyph-name="Icircumflex" unicode="&#xce;" horiz-adv-x="454" 
d="M39 0v1462h377v-1462h-377zM-94 1554l231 222h172l240 -222h-174l-148 68l-145 -68h-176z" />
    <glyph glyph-name="Idieresis" unicode="&#xcf;" horiz-adv-x="454" 
d="M39 0v1462h377v-1462h-377zM-139 1554v222h307v-222h-307zM287 1554v222h307v-222h-307z" />
    <glyph glyph-name="Eth" unicode="&#xd0;" horiz-adv-x="987" 
d="M45 0v657h-70v172h70v633h475q84 0 143 -7.5t115.5 -30.5t90 -63.5t53.5 -109t20 -164.5v-806q0 -64 -19 -113.5t-50.5 -80.5t-75.5 -51t-90 -28t-99 -8h-563zM422 657v-411h55q41 0 65.5 34t22.5 87v729q2 53 -22.5 87t-65.5 34h-55v-388h67v-172h-67z" />
    <glyph glyph-name="Ntilde" unicode="&#xd1;" 
d="M45 0v1462h320l215 -727h4v727h319v-1462h-319l-213 817h-6v-817h-320zM248 1561l-70 57q103 158 213 158q42 0 110 -37t109 -37q32 0 50 13.5t40 45.5l72 -45q-38 -69 -96.5 -115.5t-128.5 -46.5q-42 0 -112 34t-99 34q-21 0 -38.5 -10.5t-24.5 -18.5t-25 -32z" />
    <glyph glyph-name="Ograve" unicode="&#xd2;" horiz-adv-x="987" 
d="M45 422v618q0 76 10 136.5t39.5 122t77.5 102.5t130 66.5t192 25.5q92 0 164.5 -17t120.5 -49.5t81 -73t50.5 -94t24.5 -105.5t7 -114v-618q0 -62 -7 -114t-24.5 -105.5t-50.5 -94t-81 -73t-120.5 -49.5t-164.5 -17q-110 0 -192 25.5t-130 66.5t-77.5 102.5t-39.5 122
t-10 136.5zM422 1151v-840q0 -96 72 -96q71 0 71 96v840q0 96 -71 96q-72 0 -72 -96zM512 1554l-381 222h352l176 -222h-147z" />
    <glyph glyph-name="Oacute" unicode="&#xd3;" horiz-adv-x="987" 
d="M45 422v618q0 76 10 136.5t39.5 122t77.5 102.5t130 66.5t192 25.5q92 0 164.5 -17t120.5 -49.5t81 -73t50.5 -94t24.5 -105.5t7 -114v-618q0 -62 -7 -114t-24.5 -105.5t-50.5 -94t-81 -73t-120.5 -49.5t-164.5 -17q-110 0 -192 25.5t-130 66.5t-77.5 102.5t-39.5 122
t-10 136.5zM422 1151v-840q0 -96 72 -96q71 0 71 96v840q0 96 -71 96q-72 0 -72 -96zM328 1554l176 222h352l-381 -222h-147z" />
    <glyph glyph-name="Ocircumflex" unicode="&#xd4;" horiz-adv-x="987" 
d="M45 422v618q0 76 10 136.5t39.5 122t77.5 102.5t130 66.5t192 25.5q92 0 164.5 -17t120.5 -49.5t81 -73t50.5 -94t24.5 -105.5t7 -114v-618q0 -62 -7 -114t-24.5 -105.5t-50.5 -94t-81 -73t-120.5 -49.5t-164.5 -17q-110 0 -192 25.5t-130 66.5t-77.5 102.5t-39.5 122
t-10 136.5zM422 1151v-840q0 -96 72 -96q71 0 71 96v840q0 96 -71 96q-72 0 -72 -96zM172 1554l231 222h172l240 -222h-174l-147 68l-146 -68h-176z" />
    <glyph glyph-name="Otilde" unicode="&#xd5;" horiz-adv-x="987" 
d="M45 422v618q0 76 10 136.5t39.5 122t77.5 102.5t130 66.5t192 25.5q92 0 164.5 -17t120.5 -49.5t81 -73t50.5 -94t24.5 -105.5t7 -114v-618q0 -62 -7 -114t-24.5 -105.5t-50.5 -94t-81 -73t-120.5 -49.5t-164.5 -17q-110 0 -192 25.5t-130 66.5t-77.5 102.5t-39.5 122
t-10 136.5zM422 1151v-840q0 -96 72 -96q71 0 71 96v840q0 96 -71 96q-72 0 -72 -96zM266 1561l-69 57q103 158 213 158q42 0 110 -37t109 -37q32 0 50 13.5t40 45.5l72 -45q-38 -69 -97 -115.5t-129 -46.5q-42 0 -112 34t-99 34q-21 0 -38.5 -10.5t-24.5 -18.5t-25 -32z
" />
    <glyph glyph-name="Odieresis" unicode="&#xd6;" horiz-adv-x="987" 
d="M45 422v618q0 76 10 136.5t39.5 122t77.5 102.5t130 66.5t192 25.5q92 0 164.5 -17t120.5 -49.5t81 -73t50.5 -94t24.5 -105.5t7 -114v-618q0 -62 -7 -114t-24.5 -105.5t-50.5 -94t-81 -73t-120.5 -49.5t-164.5 -17q-110 0 -192 25.5t-130 66.5t-77.5 102.5t-39.5 122
t-10 136.5zM422 1151v-840q0 -96 72 -96q71 0 71 96v840q0 96 -71 96q-72 0 -72 -96zM127 1554v222h307v-222h-307zM553 1554v222h307v-222h-307z" />
    <glyph glyph-name="multiply" unicode="&#xd7;" horiz-adv-x="1228" 
d="M444 518l-313 316l168 167l315 -315l316 315l168 -167l-316 -316l316 -315l-168 -168l-316 317l-315 -317l-168 168z" />
    <glyph glyph-name="Oslash" unicode="&#xd8;" horiz-adv-x="987" 
d="M422 1151v-424h4l139 289v135q0 96 -71 96q-72 0 -72 -96zM422 449v-138q0 -96 72 -96q71 0 71 96v426h-4zM45 422v618q0 76 10 136.5t39.5 122t77.5 102.5t130 66.5t192 25.5q172 0 278 -61l31 61h139l-76 -147q76 -111 76 -306v-618q0 -62 -7 -114t-24.5 -105.5
t-50.5 -94t-81 -73t-120.5 -49.5t-164.5 -17q-176 0 -279 64l-33 -64h-137l76 152q-76 105 -76 301z" />
    <glyph glyph-name="Ugrave" unicode="&#xd9;" horiz-adv-x="987" 
d="M45 401v1061h377v-1116q0 -64 17 -91.5t55 -27.5t54.5 27.5t16.5 91.5v1116h377v-1061q0 -77 -13 -139.5t-45 -118.5t-82 -93.5t-128 -59t-180 -21.5q-127 0 -216.5 32t-139 92.5t-71.5 135.5t-22 172zM512 1554l-381 222h352l176 -222h-147z" />
    <glyph glyph-name="Uacute" unicode="&#xda;" horiz-adv-x="987" 
d="M45 401v1061h377v-1116q0 -64 17 -91.5t55 -27.5t54.5 27.5t16.5 91.5v1116h377v-1061q0 -77 -13 -139.5t-45 -118.5t-82 -93.5t-128 -59t-180 -21.5q-127 0 -216.5 32t-139 92.5t-71.5 135.5t-22 172zM328 1554l176 222h352l-381 -222h-147z" />
    <glyph glyph-name="Ucircumflex" unicode="&#xdb;" horiz-adv-x="987" 
d="M45 401v1061h377v-1116q0 -64 17 -91.5t55 -27.5t54.5 27.5t16.5 91.5v1116h377v-1061q0 -77 -13 -139.5t-45 -118.5t-82 -93.5t-128 -59t-180 -21.5q-127 0 -216.5 32t-139 92.5t-71.5 135.5t-22 172zM172 1554l231 222h172l240 -222h-174l-147 68l-146 -68h-176z" />
    <glyph glyph-name="Udieresis" unicode="&#xdc;" horiz-adv-x="987" 
d="M45 401v1061h377v-1116q0 -64 17 -91.5t55 -27.5t54.5 27.5t16.5 91.5v1116h377v-1061q0 -77 -13 -139.5t-45 -118.5t-82 -93.5t-128 -59t-180 -21.5q-127 0 -216.5 32t-139 92.5t-71.5 135.5t-22 172zM127 1554v222h307v-222h-307zM553 1554v222h307v-222h-307z" />
    <glyph glyph-name="Yacute" unicode="&#xdd;" horiz-adv-x="909" 
d="M272 0v532l-272 930h352l109 -579h4l92 579h352l-272 -930v-532h-365zM289 1554l176 222h352l-381 -222h-147z" />
    <glyph glyph-name="Thorn" unicode="&#xde;" horiz-adv-x="909" 
d="M45 0v1462h365v-299h129q166 0 256 -83.5t90 -250.5v-180q0 -82 -16.5 -144.5t-52 -110t-97 -72.5t-146.5 -25h-163v-297h-365zM410 918v-375h65q48 0 69 22t21 66v198q0 44 -21 66.5t-69 22.5h-65z" />
    <glyph glyph-name="germandbls" unicode="&#xdf;" 
d="M45 0v1145q0 53 8 96.5t34.5 92.5t71 82t124 55t186.5 22q97 0 171 -17.5t120 -46.5t74.5 -72t39.5 -88t11 -100v-135q0 -101 -31 -160.5t-117 -85.5v-4q158 -12 158 -241v-271q0 -144 -52 -208t-194 -64h-180v160q37 5 49 24t12 80v377q0 33 -13.5 46t-47.5 18v172
q34 5 48.5 18t14.5 45v266q0 43 -14 60.5t-47 17.5q-39 0 -50 -21t-11 -77v-1186h-365z" />
    <glyph glyph-name="agrave" unicode="&#xe0;" horiz-adv-x="909" 
d="M864 877v-877h-352v68q-42 -44 -102.5 -71.5t-126.5 -27.5q-114 0 -176 69.5t-62 186.5v162q0 40 1.5 62t9 49.5t21.5 44t40 36.5t64.5 37.5t94.5 38.5q105 40 150.5 64t59.5 45t14 59v152q0 29 -16.5 50.5t-45.5 21.5q-55 0 -55 -72v-238h-338v127q0 195 96.5 281
t304.5 86q102 0 175 -16.5t130 -55.5t85 -109.5t28 -172.5zM383 389v-125q0 -27 14.5 -47t38.5 -20q31 0 47.5 19t16.5 42v313q-60 -37 -88.5 -79t-28.5 -103zM473 1300l-381 222h352l177 -222h-148z" />
    <glyph glyph-name="aacute" unicode="&#xe1;" horiz-adv-x="909" 
d="M864 877v-877h-352v68q-42 -44 -102.5 -71.5t-126.5 -27.5q-114 0 -176 69.5t-62 186.5v162q0 40 1.5 62t9 49.5t21.5 44t40 36.5t64.5 37.5t94.5 38.5q105 40 150.5 64t59.5 45t14 59v152q0 29 -16.5 50.5t-45.5 21.5q-55 0 -55 -72v-238h-338v127q0 195 96.5 281
t304.5 86q102 0 175 -16.5t130 -55.5t85 -109.5t28 -172.5zM383 389v-125q0 -27 14.5 -47t38.5 -20q31 0 47.5 19t16.5 42v313q-60 -37 -88.5 -79t-28.5 -103zM289 1300l176 222h352l-381 -222h-147z" />
    <glyph glyph-name="acircumflex" unicode="&#xe2;" horiz-adv-x="909" 
d="M864 877v-877h-352v68q-42 -44 -102.5 -71.5t-126.5 -27.5q-114 0 -176 69.5t-62 186.5v162q0 40 1.5 62t9 49.5t21.5 44t40 36.5t64.5 37.5t94.5 38.5q105 40 150.5 64t59.5 45t14 59v152q0 29 -16.5 50.5t-45.5 21.5q-55 0 -55 -72v-238h-338v127q0 195 96.5 281
t304.5 86q102 0 175 -16.5t130 -55.5t85 -109.5t28 -172.5zM383 389v-125q0 -27 14.5 -47t38.5 -20q31 0 47.5 19t16.5 42v313q-60 -37 -88.5 -79t-28.5 -103zM133 1300l232 222h172l239 -222h-174l-147 68l-146 -68h-176z" />
    <glyph glyph-name="atilde" unicode="&#xe3;" horiz-adv-x="909" 
d="M864 877v-877h-352v68q-42 -44 -102.5 -71.5t-126.5 -27.5q-114 0 -176 69.5t-62 186.5v162q0 40 1.5 62t9 49.5t21.5 44t40 36.5t64.5 37.5t94.5 38.5q105 40 150.5 64t59.5 45t14 59v152q0 29 -16.5 50.5t-45.5 21.5q-55 0 -55 -72v-238h-338v127q0 195 96.5 281
t304.5 86q102 0 175 -16.5t130 -55.5t85 -109.5t28 -172.5zM383 389v-125q0 -27 14.5 -47t38.5 -20q31 0 47.5 19t16.5 42v313q-60 -37 -88.5 -79t-28.5 -103zM227 1307l-69 57q103 158 213 158q42 0 110 -37t109 -37q32 0 50 13.5t40 45.5l72 -45q-38 -69 -97 -115.5
t-129 -46.5q-42 0 -112 34t-99 34q-21 0 -38.5 -10.5t-24.5 -18.5t-25 -32z" />
    <glyph glyph-name="adieresis" unicode="&#xe4;" horiz-adv-x="909" 
d="M864 877v-877h-352v68q-42 -44 -102.5 -71.5t-126.5 -27.5q-114 0 -176 69.5t-62 186.5v162q0 40 1.5 62t9 49.5t21.5 44t40 36.5t64.5 37.5t94.5 38.5q105 40 150.5 64t59.5 45t14 59v152q0 29 -16.5 50.5t-45.5 21.5q-55 0 -55 -72v-238h-338v127q0 195 96.5 281
t304.5 86q102 0 175 -16.5t130 -55.5t85 -109.5t28 -172.5zM383 389v-125q0 -27 14.5 -47t38.5 -20q31 0 47.5 19t16.5 42v313q-60 -37 -88.5 -79t-28.5 -103zM88 1300v222h307v-222h-307zM514 1300v222h307v-222h-307z" />
    <glyph glyph-name="aring" unicode="&#xe5;" horiz-adv-x="909" 
d="M864 877v-877h-352v68q-42 -44 -102.5 -71.5t-126.5 -27.5q-114 0 -176 69.5t-62 186.5v162q0 40 1.5 62t9 49.5t21.5 44t40 36.5t64.5 37.5t94.5 38.5q105 40 150.5 64t59.5 45t14 59v152q0 29 -16.5 50.5t-45.5 21.5q-55 0 -55 -72v-238h-338v127q0 195 96.5 281
t304.5 86q102 0 175 -16.5t130 -55.5t85 -109.5t28 -172.5zM383 389v-125q0 -27 14.5 -47t38.5 -20q31 0 47.5 19t16.5 42v313q-60 -37 -88.5 -79t-28.5 -103zM252 1503q0 84 58.5 142.5t144.5 58.5q80 0 141 -59t61 -142q0 -85 -58.5 -144t-143.5 -59t-144 61t-59 142z
M362 1503q0 -38 27.5 -65t65.5 -27t65 28.5t27 63.5q0 38 -27.5 64t-64.5 26q-36 0 -64.5 -27.5t-28.5 -62.5z" />
    <glyph glyph-name="ae" unicode="&#xe6;" horiz-adv-x="1323" 
d="M823 932v-154h119v148q0 84 -63 84q-32 0 -44 -19.5t-12 -58.5zM367 389v-125q0 -27 14.5 -47t38.5 -20q31 0 48 19t17 42v313q-61 -37 -89.5 -79t-28.5 -103zM29 225v162q0 40 1.5 62t9 49.5t21.5 44t40 36.5t64.5 37.5t94.5 38.5q106 40 151 64t59.5 45t14.5 59v152
q0 29 -16.5 50.5t-46.5 21.5q-55 0 -55 -72v-238h-338v127q0 195 96.5 281t304.5 86q77 0 130 -11.5t110 -41.5q116 53 219 53q56 0 110 -12t108.5 -41.5t95 -73.5t66 -113.5t25.5 -156.5v-252h-471v-314q0 -39 12 -58.5t44 -19.5q63 0 63 84v215h352v-122q0 -90 -24 -160.5
t-62.5 -114.5t-92.5 -72.5t-109.5 -39.5t-116.5 -11q-223 0 -332 133q-72 -75 -132.5 -104t-158.5 -29q-114 0 -175.5 69.5t-61.5 186.5z" />
    <glyph glyph-name="ccedilla" unicode="&#xe7;" horiz-adv-x="909" 
d="M45 367v467q0 90 26 160.5t67.5 114t99 72t115.5 39.5t122 11q188 0 297 -99t109 -288v-101h-353v197q0 21 -3 34t-16.5 24.5t-39.5 11.5t-39.5 -11.5t-16.5 -24.5t-3 -34v-655q0 -50 13 -72.5t52 -22.5q36 0 51 24t15 75v207h352v-60q0 -108 -21 -190.5t-57 -134
t-89.5 -84t-111.5 -45t-131 -13.5v-37h23q71 0 109 -41t38 -114q0 -88 -63 -140.5t-164 -52.5q-40 0 -64 8v97q15 -6 48 -6q39 0 61.5 21.5t22.5 45.5q0 66 -86 66q-20 0 -35 -6v170q-67 10 -123 35t-103.5 69.5t-74.5 116.5t-27 166z" />
    <glyph glyph-name="egrave" unicode="&#xe8;" horiz-adv-x="909" 
d="M45 367v467q0 90 26 160.5t67.5 114t99 72t115.5 39.5t122 11q56 0 110 -12t108.5 -41.5t95.5 -73.5t66.5 -113.5t25.5 -156.5v-252h-471v-314q0 -39 11.5 -58.5t43.5 -19.5q63 0 63 84v215h353v-122q0 -90 -24 -160.5t-63 -114.5t-93 -72.5t-109.5 -39.5t-116.5 -11
q-64 0 -122 11t-115.5 39.5t-99 72.5t-67.5 114.5t-26 160.5zM410 932v-154h118v148q0 84 -63 84q-32 0 -43.5 -19.5t-11.5 -58.5zM473 1300l-381 222h352l177 -222h-148z" />
    <glyph glyph-name="eacute" unicode="&#xe9;" horiz-adv-x="909" 
d="M45 367v467q0 90 26 160.5t67.5 114t99 72t115.5 39.5t122 11q56 0 110 -12t108.5 -41.5t95.5 -73.5t66.5 -113.5t25.5 -156.5v-252h-471v-314q0 -39 11.5 -58.5t43.5 -19.5q63 0 63 84v215h353v-122q0 -90 -24 -160.5t-63 -114.5t-93 -72.5t-109.5 -39.5t-116.5 -11
q-64 0 -122 11t-115.5 39.5t-99 72.5t-67.5 114.5t-26 160.5zM410 932v-154h118v148q0 84 -63 84q-32 0 -43.5 -19.5t-11.5 -58.5zM289 1300l176 222h352l-381 -222h-147z" />
    <glyph glyph-name="ecircumflex" unicode="&#xea;" horiz-adv-x="909" 
d="M45 367v467q0 90 26 160.5t67.5 114t99 72t115.5 39.5t122 11q56 0 110 -12t108.5 -41.5t95.5 -73.5t66.5 -113.5t25.5 -156.5v-252h-471v-314q0 -39 11.5 -58.5t43.5 -19.5q63 0 63 84v215h353v-122q0 -90 -24 -160.5t-63 -114.5t-93 -72.5t-109.5 -39.5t-116.5 -11
q-64 0 -122 11t-115.5 39.5t-99 72.5t-67.5 114.5t-26 160.5zM410 932v-154h118v148q0 84 -63 84q-32 0 -43.5 -19.5t-11.5 -58.5zM133 1300l232 222h172l239 -222h-174l-147 68l-146 -68h-176z" />
    <glyph glyph-name="edieresis" unicode="&#xeb;" horiz-adv-x="909" 
d="M45 367v467q0 90 26 160.5t67.5 114t99 72t115.5 39.5t122 11q56 0 110 -12t108.5 -41.5t95.5 -73.5t66.5 -113.5t25.5 -156.5v-252h-471v-314q0 -39 11.5 -58.5t43.5 -19.5q63 0 63 84v215h353v-122q0 -90 -24 -160.5t-63 -114.5t-93 -72.5t-109.5 -39.5t-116.5 -11
q-64 0 -122 11t-115.5 39.5t-99 72.5t-67.5 114.5t-26 160.5zM410 932v-154h118v148q0 84 -63 84q-32 0 -43.5 -19.5t-11.5 -58.5zM88 1300v222h307v-222h-307zM514 1300v222h307v-222h-307z" />
    <glyph glyph-name="igrave" unicode="&#xec;" horiz-adv-x="454" 
d="M45 0v1200h365v-1200h-365zM246 1300l-381 222h352l176 -222h-147z" />
    <glyph glyph-name="iacute" unicode="&#xed;" horiz-adv-x="454" 
d="M45 0v1200h365v-1200h-365zM61 1300l177 222h352l-381 -222h-148z" />
    <glyph glyph-name="icircumflex" unicode="&#xee;" horiz-adv-x="454" 
d="M45 0v1200h365v-1200h-365zM-94 1300l231 222h172l240 -222h-174l-148 68l-145 -68h-176z" />
    <glyph glyph-name="idieresis" unicode="&#xef;" horiz-adv-x="454" 
d="M45 0v1200h365v-1200h-365zM-139 1300v222h307v-222h-307zM287 1300v222h307v-222h-307z" />
    <glyph glyph-name="eth" unicode="&#xf0;" horiz-adv-x="950" 
d="M410 881v-635q0 -34 16.5 -57t48.5 -23t49 23.5t17 56.5v635q0 33 -17 56.5t-49 23.5t-48.5 -23t-16.5 -57zM225 1151l-155 111l178 75q-100 47 -170 60l207 157q124 -12 258 -90l198 84l152 -106l-201 -88q98 -92 155.5 -207.5t57.5 -239.5v-540q0 -90 -26 -160.5
t-67.5 -114.5t-99 -72.5t-115.5 -39.5t-122 -11t-122 11t-115.5 39.5t-99 72.5t-67.5 114.5t-26 160.5v348q0 72 13.5 131t35 99t52.5 70.5t62.5 47.5t69 27.5t67 14t61.5 3.5q80 0 102 -27l8 4q-14 78 -100 150z" />
    <glyph glyph-name="ntilde" unicode="&#xf1;" 
d="M55 0v1200h365v-92h4q24 49 83.5 86t137.5 37q118 0 183 -79.5t65 -240.5v-911h-365v899q0 86 -57 86q-23 0 -35 -16t-14 -31.5t-2 -40.5v-897h-365zM248 1307l-70 57q103 158 213 158q42 0 110 -37t109 -37q32 0 50 13.5t40 45.5l72 -45q-38 -69 -96.5 -115.5
t-128.5 -46.5q-42 0 -112 34t-99 34q-21 0 -38.5 -10.5t-24.5 -18.5t-25 -32z" />
    <glyph glyph-name="ograve" unicode="&#xf2;" horiz-adv-x="950" 
d="M45 367v467q0 90 26 160.5t67.5 114t99 72t115.5 39.5t122 11t122 -11t115.5 -39.5t99 -72t67.5 -114t26 -160.5v-467q0 -90 -26 -160.5t-67.5 -114.5t-99 -72.5t-115.5 -39.5t-122 -11t-122 11t-115.5 39.5t-99 72.5t-67.5 114.5t-26 160.5zM410 930v-635
q0 -33 16.5 -56.5t48.5 -23.5t49 23.5t17 56.5v635q0 33 -17 56.5t-49 23.5t-48.5 -23t-16.5 -57zM494 1300l-381 222h352l176 -222h-147z" />
    <glyph glyph-name="oacute" unicode="&#xf3;" horiz-adv-x="950" 
d="M45 367v467q0 90 26 160.5t67.5 114t99 72t115.5 39.5t122 11t122 -11t115.5 -39.5t99 -72t67.5 -114t26 -160.5v-467q0 -90 -26 -160.5t-67.5 -114.5t-99 -72.5t-115.5 -39.5t-122 -11t-122 11t-115.5 39.5t-99 72.5t-67.5 114.5t-26 160.5zM410 930v-635
q0 -33 16.5 -56.5t48.5 -23.5t49 23.5t17 56.5v635q0 33 -17 56.5t-49 23.5t-48.5 -23t-16.5 -57zM309 1300l176 222h353l-381 -222h-148z" />
    <glyph glyph-name="ocircumflex" unicode="&#xf4;" horiz-adv-x="950" 
d="M45 367v467q0 90 26 160.5t67.5 114t99 72t115.5 39.5t122 11t122 -11t115.5 -39.5t99 -72t67.5 -114t26 -160.5v-467q0 -90 -26 -160.5t-67.5 -114.5t-99 -72.5t-115.5 -39.5t-122 -11t-122 11t-115.5 39.5t-99 72.5t-67.5 114.5t-26 160.5zM410 930v-635
q0 -33 16.5 -56.5t48.5 -23.5t49 23.5t17 56.5v635q0 33 -17 56.5t-49 23.5t-48.5 -23t-16.5 -57zM154 1300l231 222h172l240 -222h-174l-148 68l-145 -68h-176z" />
    <glyph glyph-name="otilde" unicode="&#xf5;" horiz-adv-x="950" 
d="M45 367v467q0 90 26 160.5t67.5 114t99 72t115.5 39.5t122 11t122 -11t115.5 -39.5t99 -72t67.5 -114t26 -160.5v-467q0 -90 -26 -160.5t-67.5 -114.5t-99 -72.5t-115.5 -39.5t-122 -11t-122 11t-115.5 39.5t-99 72.5t-67.5 114.5t-26 160.5zM410 930v-635
q0 -33 16.5 -56.5t48.5 -23.5t49 23.5t17 56.5v635q0 33 -17 56.5t-49 23.5t-48.5 -23t-16.5 -57zM248 1307l-70 57q103 158 213 158q42 0 110 -37t109 -37q32 0 50 13.5t40 45.5l72 -45q-38 -69 -96.5 -115.5t-128.5 -46.5q-42 0 -112 34t-99 34q-21 0 -38.5 -10.5
t-24.5 -18.5t-25 -32z" />
    <glyph glyph-name="odieresis" unicode="&#xf6;" horiz-adv-x="950" 
d="M45 367v467q0 90 26 160.5t67.5 114t99 72t115.5 39.5t122 11t122 -11t115.5 -39.5t99 -72t67.5 -114t26 -160.5v-467q0 -90 -26 -160.5t-67.5 -114.5t-99 -72.5t-115.5 -39.5t-122 -11t-122 11t-115.5 39.5t-99 72.5t-67.5 114.5t-26 160.5zM410 930v-635
q0 -33 16.5 -56.5t48.5 -23.5t49 23.5t17 56.5v635q0 33 -17 56.5t-49 23.5t-48.5 -23t-16.5 -57zM109 1300v222h307v-222h-307zM535 1300v222h307v-222h-307z" />
    <glyph glyph-name="divide" unicode="&#xf7;" horiz-adv-x="1228" 
d="M96 395v246h1037v-246h-1037zM426 942q0 78 55 133t133 55t133.5 -55t55.5 -133t-55.5 -133t-133.5 -55t-133 55t-55 133zM426 94q0 78 55 133.5t133 55.5t133.5 -55.5t55.5 -133.5t-55.5 -133t-133.5 -55t-133 55t-55 133z" />
    <glyph glyph-name="oslash" unicode="&#xf8;" horiz-adv-x="950" 
d="M410 930v-324h4l127 228v96q0 33 -17 56.5t-49 23.5t-48.5 -23t-16.5 -57zM541 295v307h-4l-127 -225v-82q0 -33 16.5 -56.5t48.5 -23.5t49 23.5t17 56.5zM45 367v467q0 90 26 160.5t67.5 114t99 72t115.5 39.5t122 11q153 0 258 -62l37 62h135l-80 -135q80 -103 80 -262
v-467q0 -90 -26 -160.5t-67.5 -114.5t-99 -72.5t-115.5 -39.5t-122 -11q-159 0 -264 68l-39 -68h-127l80 142q-80 93 -80 256z" />
    <glyph glyph-name="ugrave" unicode="&#xf9;" 
d="M55 289v911h365v-899q0 -86 57 -86q23 0 35 16t14 31.5t2 40.5v897h365v-1200h-365v92h-4q-23 -55 -90 -89t-131 -34q-118 0 -183 79.5t-65 240.5zM494 1300l-381 222h352l176 -222h-147z" />
    <glyph glyph-name="uacute" unicode="&#xfa;" 
d="M55 289v911h365v-899q0 -86 57 -86q23 0 35 16t14 31.5t2 40.5v897h365v-1200h-365v92h-4q-23 -55 -90 -89t-131 -34q-118 0 -183 79.5t-65 240.5zM309 1300l176 222h353l-381 -222h-148z" />
    <glyph glyph-name="ucircumflex" unicode="&#xfb;" 
d="M55 289v911h365v-899q0 -86 57 -86q23 0 35 16t14 31.5t2 40.5v897h365v-1200h-365v92h-4q-23 -55 -90 -89t-131 -34q-118 0 -183 79.5t-65 240.5zM154 1300l231 222h172l240 -222h-174l-148 68l-145 -68h-176z" />
    <glyph glyph-name="udieresis" unicode="&#xfc;" 
d="M55 289v911h365v-899q0 -86 57 -86q23 0 35 16t14 31.5t2 40.5v897h365v-1200h-365v92h-4q-23 -55 -90 -89t-131 -34q-118 0 -183 79.5t-65 240.5zM109 1300v222h307v-222h-307zM535 1300v222h307v-222h-307z" />
    <glyph glyph-name="yacute" unicode="&#xfd;" horiz-adv-x="833" 
d="M51 -176v172h84q42 3 57 19t15 55q0 2 -12 77l-195 1053h352l94 -924h5l63 924h320l-140 -1028q-9 -62 -18.5 -106t-28.5 -93t-45.5 -79t-69.5 -50t-100 -20h-381zM252 1300l176 222h352l-381 -222h-147z" />
    <glyph glyph-name="thorn" unicode="&#xfe;" horiz-adv-x="950" 
d="M45 -176v1638h365v-362q49 58 113.5 94.5t133.5 36.5q61 0 106 -19.5t72 -51.5t43 -82t21.5 -102t5.5 -120v-473q0 -55 -2.5 -96.5t-10.5 -93.5t-26 -88.5t-45 -69t-71.5 -49.5t-102.5 -17q-136 0 -233 133h-4v-278h-365zM410 913v-596q0 -45 16.5 -73.5t48.5 -28.5
q66 0 66 102v596q0 42 -14.5 63t-51.5 21q-65 0 -65 -84z" />
    <glyph glyph-name="ydieresis" unicode="&#xff;" horiz-adv-x="833" 
d="M51 -176v172h84q42 3 57 19t15 55q0 2 -12 77l-195 1053h352l94 -924h5l63 924h320l-140 -1028q-9 -62 -18.5 -106t-28.5 -93t-45.5 -79t-69.5 -50t-100 -20h-381zM51 1300v222h307v-222h-307zM477 1300v222h307v-222h-307z" />
    <glyph glyph-name="dotlessi" unicode="&#x131;" horiz-adv-x="454" 
d="M45 0v1200h365v-1200h-365z" />
    <glyph glyph-name="Lslash" unicode="&#x141;" horiz-adv-x="681" 
d="M-84 471v234l129 88v669h377v-409l207 143v-233l-207 -144v-536h250v-283h-627v559z" />
    <glyph glyph-name="lslash" unicode="&#x142;" horiz-adv-x="454" 
d="M-61 477v197l106 80v708h365v-438l106 80v-197l-106 -80v-827h-365v557z" />
    <glyph glyph-name="OE" unicode="&#x152;" horiz-adv-x="1251" 
d="M45 467v528q0 248 116 366t363 118q18 0 115 -9q86 -8 100 -8h475v-295h-299v-268h283v-283h-283v-321h318v-295h-510q-37 0 -111 -8t-110 -8q-89 0 -159.5 16t-117.5 41t-81.5 65t-53 78.5t-29 91.5t-13.5 94.5t-3 96.5zM422 1147v-809q0 -33 3 -53t19.5 -38t47.5 -18
q25 0 41 9.5t22 29.5t7 33t1 37v811q0 55 -15 80.5t-52 25.5q-41 0 -58.5 -25.5t-15.5 -82.5z" />
    <glyph glyph-name="oe" unicode="&#x153;" horiz-adv-x="1402" 
d="M410 930v-635q0 -33 16.5 -56.5t48.5 -23.5t49 23.5t17 56.5v635q0 33 -17 56.5t-49 23.5t-48.5 -23t-16.5 -57zM45 367v467q0 90 26 160.5t67.5 114t99 72t115.5 39.5t122 11q67 0 142 -21.5t120 -50.5q40 28 111 50t121 22q56 0 110 -12t108.5 -41.5t95 -73.5
t66 -113.5t25.5 -156.5v-252h-495v-314q0 -40 14.5 -59t56.5 -19q72 0 72 84v215h352v-122q0 -90 -24 -160.5t-63.5 -114.5t-95 -72.5t-113 -39.5t-122.5 -11q-135 0 -243 51q-88 -51 -238 -51q-64 0 -122 11t-115.5 39.5t-99 72.5t-67.5 114.5t-26 160.5zM997 778v148
q0 84 -59 84q-34 0 -46.5 -19.5t-12.5 -58.5v-154h118z" />
    <glyph glyph-name="Scaron" unicode="&#x160;" horiz-adv-x="909" 
d="M31 350v182h352v-235q0 -94 63 -94q20 0 33.5 9t20.5 21t11 32.5t4.5 34.5t0.5 36v61q0 54 -27 98t-70 76t-95 63t-103.5 68t-94.5 81.5t-70 112.5t-27 153v81q0 191 106.5 277t304.5 86q102 0 178 -19t120.5 -48.5t72 -73.5t36.5 -86.5t9 -94.5v-137h-338v121
q0 105 -74 105q-63 0 -63 -97v-63q0 -43 27.5 -79.5t71.5 -66t97.5 -60.5t107 -70t97.5 -86.5t71.5 -119.5t27.5 -159v-115q0 -109 -31 -183.5t-92 -115.5t-137.5 -58.5t-180.5 -17.5t-179.5 20.5t-119.5 53t-69 84t-33 102.5t-8 121zM365 1554l-232 222h176l146 -74l147 74
h174l-239 -222h-172z" />
    <glyph glyph-name="scaron" unicode="&#x161;" horiz-adv-x="872" 
d="M29 301v131h338v-164q0 -28 15.5 -46.5t43.5 -18.5q27 0 46.5 17.5t19.5 51.5v62q0 37 -25 66.5t-65 52t-88 45.5t-96.5 53.5t-88.5 69t-65 99t-25 136.5q0 39 3 71.5t13 72.5t27 71t48 62.5t72.5 51.5t103 33t138.5 13q51 0 100 -8t102 -29t92.5 -54t65 -88t25.5 -126
v-113h-337v113q0 71 -56 71q-59 0 -59 -71v-47q0 -21 12.5 -40t42 -39t57 -35.5t80 -43t88.5 -47.5q61 -35 99 -72t57 -82.5t25 -90t6 -112.5q0 -189 -111.5 -268.5t-320.5 -79.5q-91 0 -158.5 16t-119.5 53.5t-78.5 103t-26.5 159.5zM346 1300l-231 222h176l145 -74l148 74
h174l-240 -222h-172z" />
    <glyph glyph-name="Ydieresis" unicode="&#x178;" horiz-adv-x="909" 
d="M272 0v532l-272 930h352l109 -579h4l92 579h352l-272 -930v-532h-365zM88 1554v222h307v-222h-307zM514 1554v222h307v-222h-307z" />
    <glyph glyph-name="Zcaron" unicode="&#x17d;" horiz-adv-x="720" 
d="M47 1462h643v-260l-287 -919h306v-283h-697v229l312 951h-277v282zM270 1554l-231 222h176l145 -74l148 74h174l-240 -222h-172z" />
    <glyph glyph-name="zcaron" unicode="&#x17e;" horiz-adv-x="681" 
d="M20 0v250l275 717h-250v233h602v-278l-262 -689h277v-233h-642zM252 1300l-232 222h177l145 -74l147 74h175l-240 -222h-172z" />
    <glyph glyph-name="florin" unicode="&#x192;" horiz-adv-x="983" 
d="M180 741v222h170q6 64 37 280q10 64 22 104t31.5 70.5t51.5 46t75.5 22.5t110.5 7h192v-221h-26q-60 0 -80 -17t-27 -84l-22 -208h137v-222h-168l-88 -690q-13 -106 -70 -166.5t-159 -60.5h-254v221h32q28 0 47 7.5t30 17t18.5 35t11 46t8.5 64.5l66 526h-146z" />
    <glyph glyph-name="circumflex" unicode="&#x2c6;" horiz-adv-x="454" 
d="M-94 1300l231 222h172l240 -222h-174l-148 68l-145 -68h-176z" />
    <glyph glyph-name="caron" unicode="&#x2c7;" horiz-adv-x="454" 
d="M137 1300l-231 222h176l145 -74l148 74h174l-240 -222h-172z" />
    <glyph glyph-name="uni02C9" unicode="&#x2c9;" horiz-adv-x="454" 
d="M-61 1346v147h577v-147h-577z" />
    <glyph glyph-name="breve" unicode="&#x2d8;" horiz-adv-x="454" 
d="M-35 1530h105q12 -49 49 -65.5t98 -16.5q36 0 56.5 2t43.5 9.5t38.5 25t27.5 45.5h106q-19 -119 -83.5 -174.5t-182.5 -55.5q-247 0 -258 230z" />
    <glyph glyph-name="dotaccent" unicode="&#x2d9;" horiz-adv-x="454" 
d="M74 1300v222h307v-222h-307z" />
    <glyph glyph-name="ring" unicode="&#x2da;" horiz-adv-x="454" 
d="M25 1503q0 84 58 142.5t144 58.5q80 0 141.5 -59t61.5 -142q0 -85 -59 -144t-144 -59t-143.5 61t-58.5 142zM135 1503q0 -38 27 -65t65 -27t65 28.5t27 63.5q0 38 -27.5 64t-64.5 26q-35 0 -63.5 -27.5t-28.5 -62.5z" />
    <glyph glyph-name="ogonek" unicode="&#x2db;" horiz-adv-x="454" 
d="M221 0h156q-83 -49 -142 -107t-59 -98q0 -43 30.5 -65.5t76.5 -22.5q75 0 143 29l25 -115q-109 -37 -224 -37q-223 0 -223 168q0 74 64.5 139t152.5 109z" />
    <glyph glyph-name="tilde" unicode="&#x2dc;" horiz-adv-x="454" 
d="M0 1307l-70 57q103 158 213 158q42 0 110 -37t109 -37q33 0 51.5 13.5t39.5 45.5l71 -45q-38 -69 -96.5 -115.5t-128.5 -46.5q-42 0 -112 34t-99 34q-21 0 -38.5 -10.5t-24.5 -18.5t-25 -32z" />
    <glyph glyph-name="hungarumlaut" unicode="&#x2dd;" horiz-adv-x="454" 
d="M268 1300l176 222h353l-381 -222h-148zM-158 1300l176 222h353l-381 -222h-148z" />
    <glyph glyph-name="uni03A9" unicode="&#x3a9;" horiz-adv-x="1204" 
d="M264 256v6q-82 109 -136 253t-54 312q0 129 37.5 249t105 212t169 147.5t220.5 55.5q105 0 193 -41.5t146 -108t98.5 -152t58.5 -171t18 -166.5q0 -172 -55.5 -329.5t-134.5 -260.5v-6h219v-256h-481v184q63 53 104 189q47 159 47 403q0 130 -22.5 228.5t-72 158.5
t-122.5 60q-107 0 -167 -127t-60 -334q0 -221 44.5 -374.5t106.5 -203.5v-184h-479v256h217z" />
    <glyph glyph-name="uni03BC" unicode="&#x3bc;" 
d="M55 -176v1376h365v-899q0 -86 57 -86q23 0 35 16t14 31.5t2 40.5v897h365v-1200h-365v92h-4q-11 -25 -32 -43t-43 -18q-14 0 -29 6v-213h-365z" />
    <glyph glyph-name="pi" unicode="&#x3c0;" horiz-adv-x="1118" 
d="M1081 840h-114v-553q0 -177 22 -287h-284q-33 70 -33 287v553h-193q-8 -183 -35.5 -424t-72.5 -416h-285q44 197 73 441.5t31 398.5q-94 0 -153 -17l-31 213q40 33 123 54.5t197 21.5h774z" />
    <glyph glyph-name="endash" unicode="&#x2013;" horiz-adv-x="1024" 
d="M0 516v283h1024v-283h-1024z" />
    <glyph glyph-name="emdash" unicode="&#x2014;" horiz-adv-x="2048" 
d="M0 516v283h2048v-283h-2048z" />
    <glyph glyph-name="quoteleft" unicode="&#x2018;" horiz-adv-x="491" 
d="M387 1268v-295h-283v219q0 103 78 186.5t189 83.5l10 -110q-32 0 -52 -25t-20 -59h78z" />
    <glyph glyph-name="quoteright" unicode="&#x2019;" horiz-adv-x="491" 
d="M104 1167v295h283v-219q0 -103 -77.5 -186.5t-188.5 -83.5l-10 110q32 0 51.5 25t19.5 59h-78z" />
    <glyph glyph-name="quotesinglbase" unicode="&#x201a;" horiz-adv-x="491" 
d="M104 0v295h283v-219q0 -104 -78 -187.5t-188 -83.5l-10 111q32 0 51.5 25t19.5 59h-78z" />
    <glyph glyph-name="quotedblleft" unicode="&#x201c;" horiz-adv-x="681" 
d="M662 1268v-295h-283v219q0 103 77.5 186.5t188.5 83.5l10 -110q-32 0 -51.5 -25t-19.5 -59h78zM303 1268v-295h-283v219q0 103 78 186.5t189 83.5l10 -110q-32 0 -52 -25t-20 -59h78z" />
    <glyph glyph-name="quotedblright" unicode="&#x201d;" horiz-adv-x="681" 
d="M20 1167v295h283v-219q0 -103 -77.5 -186.5t-188.5 -83.5l-10 110q32 0 51.5 25t19.5 59h-78zM379 1167v295h283v-219q0 -103 -78 -186.5t-189 -83.5l-10 110q32 0 52 25t20 59h-78z" />
    <glyph glyph-name="quotedblbase" unicode="&#x201e;" horiz-adv-x="681" 
d="M20 0v295h283v-219q0 -104 -78 -187.5t-188 -83.5l-10 111q32 0 51.5 25t19.5 59h-78zM379 0v295h283v-219q0 -103 -78 -187t-189 -84l-10 111q32 0 52 25t20 59h-78z" />
    <glyph glyph-name="dagger" unicode="&#x2020;" horiz-adv-x="983" 
d="M96 840v295h215v327h365v-327h211v-295h-211v-840h-365v840h-215z" />
    <glyph glyph-name="daggerdbl" unicode="&#x2021;" horiz-adv-x="983" 
d="M96 319v295h215v336h-215v295h215v217h365v-217h211v-295h-211v-336h211v-295h-211v-319h-365v319h-215z" />
    <glyph glyph-name="bullet" unicode="&#x2022;" horiz-adv-x="1024" 
d="M147 731q0 151 107 258t258 107t258 -107t107 -258t-107 -257.5t-258 -106.5t-258 106.5t-107 257.5z" />
    <glyph glyph-name="ellipsis" unicode="&#x2026;" horiz-adv-x="2048" 
d="M201 0v295h282v-295h-282zM883 0v295h282v-295h-282zM1565 0v295h282v-295h-282z" />
    <glyph glyph-name="perthousand" unicode="&#x2030;" horiz-adv-x="2123" 
d="M1765 727v-549q0 -61 45 -61t45 61v549q0 61 -45 61t-45 -61zM395 -31l570 1524h157l-571 -1524h-156zM285 1284v-549q0 -61 45 -61t45 61v549q0 62 -45 62t-45 -62zM1528 203v487q0 65 22 112t61 73t84 37.5t99 11.5t99 -11.5t84 -37.5t61 -73t22 -112v-487
q0 -65 -22 -112t-61 -73t-84 -37.5t-99 -11.5t-99 11.5t-84 37.5t-61 73t-22 112zM63 772v488q0 65 22 112t61.5 72.5t84.5 37t99 11.5t99 -11.5t84 -37t61 -72.5t22 -112v-488q0 -65 -22 -112t-61 -72.5t-84 -37t-99 -11.5t-99 11.5t-84.5 37t-61.5 72.5t-22 112zM920 203
v487q0 65 22 112t61 73t84 37.5t99 11.5t99 -11.5t84 -37.5t61 -73t22 -112v-487q0 -65 -22 -112t-61 -73t-84 -37.5t-99 -11.5t-99 11.5t-84 37.5t-61 73t-22 112zM1141 727v-549q0 -61 45 -61t45 61v549q0 61 -45 61t-45 -61z" />
    <glyph glyph-name="guilsinglleft" unicode="&#x2039;" horiz-adv-x="491" 
d="M25 586l153 327h289l-148 -327l138 -312h-295z" />
    <glyph glyph-name="guilsinglright" unicode="&#x203a;" horiz-adv-x="491" 
d="M37 274l135 312l-147 327h288l154 -327l-135 -312h-295z" />
    <glyph glyph-name="fraction" unicode="&#x2044;" horiz-adv-x="342" 
d="M-193 -31l570 1524h158l-572 -1524h-156z" />
    <glyph glyph-name="Euro" unicode="&#x20ac;" horiz-adv-x="983" 
d="M176 346v111h-192l65 209h127v139h-192l65 209h127v102q0 74 25 144q25 68 73 116q112 117 332 117q60 0 109 -8q59 -9 114 -33q39 -16 80 -49q28 -22 54 -55l-91 -232q-15 35 -41 64q-26 30 -49 45q-54 35 -112 35q-79 0 -111 -54q-18 -31 -18 -98v-94h307l-66 -209
h-241v-139h217l-66 -209h-151v-97q0 -78 26 -112q30 -45 105 -45q65 0 137 37q25 13 65 41q45 32 68 59v-266q-64 -48 -131 -72q-88 -33 -205 -33q-103 0 -176 23q-79 26 -135 76q-119 105 -119 278z" />
    <glyph glyph-name="afii61289" unicode="&#x2113;" horiz-adv-x="942" 
d="M813 391l109 -123q-129 -293 -383 -293q-91 0 -159.5 27.5t-108.5 75t-60.5 104t-24.5 123.5v23q-84 -71 -92 -78l-63 162q16 15 41.5 38t40.5 37t34.5 33.5t36.5 38.5v528q0 247 101 385t256 138q131 0 195.5 -105t64.5 -280q0 -316 -328 -690v-129q1 -89 36 -138
t97 -49q103 0 207 172zM473 1047v-226q75 109 119.5 225.5t44.5 202.5q0 71 -17.5 104t-60.5 33q-86 0 -86 -339z" />
    <glyph glyph-name="trademark" unicode="&#x2122;" horiz-adv-x="2048" 
d="M330 618v660h-230v184h705v-184h-230v-660h-245zM952 618v844h320l178 -489l178 489h320v-844h-222v549h-4l-180 -549h-184l-180 549h-4v-549h-222z" />
    <glyph glyph-name="Omega" unicode="&#x2126;" horiz-adv-x="1204" 
d="M264 256v6q-82 109 -136 253t-54 312q0 129 37.5 249t105 212t169 147.5t220.5 55.5q105 0 193 -41.5t146 -108t98.5 -152t58.5 -171t18 -166.5q0 -172 -55.5 -329.5t-134.5 -260.5v-6h219v-256h-481v184q63 53 104 189q47 159 47 403q0 130 -22.5 228.5t-72 158.5
t-122.5 60q-107 0 -167 -127t-60 -334q0 -221 44.5 -374.5t106.5 -203.5v-184h-479v256h217z" />
    <glyph glyph-name="estimated" unicode="&#x212e;" horiz-adv-x="1837" 
d="M1763 711h-1370q-10 0 -10 -11v-413q0 -28 16 -47q102 -107 236 -166.5t285 -59.5q160 0 301 67t243 185h121q-115 -136 -291.5 -215.5t-378.5 -79.5q-171 0 -327 60t-269 162t-180 242.5t-67 295.5t67 296t180 243t269 162.5t327 60.5q173 0 330 -60.5t270.5 -162.5
t180.5 -243t67 -296v-20zM1452 764v418q0 29 -20 49q-101 101 -233.5 158t-278.5 57q-148 0 -282.5 -59t-234.5 -162q-20 -20 -20 -54v-407q0 -4 3 -9t7 -5h1051q8 0 8 14z" />
    <glyph glyph-name="partialdiff" unicode="&#x2202;" horiz-adv-x="1077" 
d="M199 1303l-74 245q142 117 342 117q103 0 194 -48.5t164 -143.5t115.5 -250t42.5 -353q0 -425 -136.5 -656.5t-387.5 -231.5q-74 0 -138 29.5t-109 79t-77 114t-47.5 134.5t-15.5 140q0 131 32 239.5t86.5 178.5t125.5 108.5t151 38.5q82 0 140 -38.5t83 -81.5h2v59
q0 71 -17.5 143.5t-50 135t-85 102t-115.5 39.5q-116 0 -225 -100zM487 248h2q39 0 72.5 40.5t55 105t35.5 134t20 138.5q-11 44 -50.5 83t-97.5 39q-50 0 -87.5 -49t-56 -123t-18.5 -157q0 -89 33.5 -150t91.5 -61z" />
    <glyph glyph-name="Delta" unicode="&#x2206;" horiz-adv-x="1181" 
d="M47 0v178l379 1317h350l354 -1309v-186h-1083zM346 252h481l-141 477q-12 59 -48 200.5t-44 186.5h-4q-6 -40 -40.5 -168t-47.5 -190z" />
    <glyph glyph-name="product" unicode="&#x220f;" horiz-adv-x="1341" 
d="M1288 1182h-166v-1385h-299v1385h-307v-1385h-299v1385h-166v288h1237v-288z" />
    <glyph glyph-name="summation" unicode="&#x2211;" horiz-adv-x="1005" 
d="M971 -203h-922v207l402 637l-396 606v223h889v-262h-504v-6l340 -497l-391 -607v-4h582v-297z" />
    <glyph glyph-name="minus" unicode="&#x2212;" horiz-adv-x="1228" 
d="M1133 395h-1037v246h1037v-246z" />
    <glyph glyph-name="uni2215" unicode="&#x2215;" horiz-adv-x="342" 
d="M-193 -31l570 1524h158l-572 -1524h-156z" />
    <glyph glyph-name="uni2219" unicode="&#x2219;" horiz-adv-x="491" 
d="M86 612q0 67 47.5 113.5t112.5 46.5t112.5 -46.5t47.5 -113.5t-47.5 -113t-112.5 -46t-112.5 46t-47.5 113z" />
    <glyph glyph-name="radical" unicode="&#x221a;" horiz-adv-x="1112" 
d="M1120 1782l-399 -2052h-234l-243 884l-138 -55l-43 176l359 148l143 -566q8 -45 22 -118.5t17 -92.5l2 -4q24 199 31 238l287 1442h196z" />
    <glyph glyph-name="infinity" unicode="&#x221e;" horiz-adv-x="1517" 
d="M1425 606v-4q0 -82 -27.5 -151t-73 -113t-103 -68t-119.5 -24q-93 0 -173 44.5t-167 170.5q-80 -107 -162.5 -161t-193.5 -54q-127 0 -221.5 96.5t-94.5 249.5q0 156 95 254t239 98q103 0 183.5 -50t158.5 -155q71 84 110 116q106 90 236 89q133 0 223 -93t90 -245z
M426 408h4q46 0 91.5 26.5t76 59t76.5 90.5q-72 103 -99 131q-67 71 -151 71q-80 0 -125 -53.5t-45 -142.5q0 -75 50.5 -128.5t121.5 -53.5zM1098 786h-4q-20 0 -40.5 -6t-36 -12.5t-35.5 -22.5t-30.5 -24.5t-30.5 -31t-25.5 -29.5t-25.5 -32.5t-22 -27.5
q83 -114 134.5 -153t123.5 -39q69 0 112.5 59t43.5 123q0 82 -45 139t-119 57z" />
    <glyph glyph-name="integral" unicode="&#x222b;" horiz-adv-x="825" 
d="M754 1810l-25 -221q-38 15 -63 15q-53 0 -88 -54q-43 -65 -43 -344q0 -169 13 -475t13 -512q0 -298 -59 -424q-39 -89 -115.5 -130.5t-167.5 -41.5q-85 0 -153 33l34 227q48 -18 74 -18q51 0 74 37q37 62 37 307q0 209 -13.5 525.5t-13.5 500.5q0 190 27 302t92 187
q43 51 111.5 78t142.5 27q64 0 123 -19z" />
    <glyph glyph-name="approxequal" unicode="&#x2248;" horiz-adv-x="991" 
d="M823 950l103 -88q-41 -97 -110 -159t-146 -62q-52 0 -94.5 16.5t-104.5 59.5q-37 26 -52.5 36t-42.5 20.5t-54 10.5q-17 0 -31.5 -4t-27.5 -13.5t-22.5 -17t-21.5 -24t-17 -24.5t-17.5 -29t-16.5 -27l-102 88q40 96 111.5 156.5t158.5 60.5q22 0 43.5 -3.5t36.5 -8
t34 -13t27.5 -13.5t26.5 -15.5t22 -13.5q8 -5 25 -16.5t24.5 -16t20.5 -12.5t21 -11.5t18.5 -8t20 -6t18.5 -1.5q25 0 45.5 9.5t40 33t31 41.5t32.5 55zM823 565l103 -88q-42 -97 -110.5 -158t-147.5 -61q-50 0 -92.5 16.5t-104.5 57.5q-69 50 -96 60q-25 9 -53 9
q-14 0 -27.5 -4t-23.5 -8t-21.5 -15.5t-18 -17t-18 -22.5t-15 -22.5t-15.5 -26.5t-15 -25l-102 88q40 96 111.5 156.5t158.5 60.5q17 0 33.5 -2t28.5 -4.5t27 -8t23.5 -8.5t22.5 -10.5t19 -10.5t18.5 -11.5t15.5 -9.5q10 -6 40 -25.5t41.5 -26.5t31.5 -14.5t37 -7.5
q25 0 45 9t40.5 34.5t29.5 39.5t34 56z" />
    <glyph glyph-name="notequal" unicode="&#x2260;" horiz-adv-x="991" 
d="M750 1059l-66 -162h221v-174h-278l-103 -256h381v-174h-438l-86 -209l-131 47l65 162h-229v174h289l100 256h-389v174h446l84 207z" />
    <glyph glyph-name="lessequal" unicode="&#x2264;" horiz-adv-x="991" 
d="M899 201l-801 444v191l801 444v-207l-645 -330v-4l645 -331v-207zM909 -47h-817v176h817v-176z" />
    <glyph glyph-name="greaterequal" unicode="&#x2265;" horiz-adv-x="991" 
d="M104 1280l801 -444v-191l-801 -444v207l646 331v4l-646 330v207zM909 -47h-817v176h817v-176z" />
    <glyph glyph-name="lozenge" unicode="&#x25ca;" horiz-adv-x="1107" 
d="M1020 733l-352 -835h-246l-330 835l350 840h246zM756 727l-156 428q-26 89 -35 156h-8q-20 -97 -39 -156l-162 -414l158 -442q16 -59 31 -143h10q23 108 33 137z" />
    </font>
</defs>
</svg>
